<svg xmlns="http://www.w3.org/2000/svg" xmlns:xlink="http://www.w3.org/1999/xlink" width="157" height="34" viewBox="0 0 157 34">
  <defs>
    <clipPath id="clip-path">
      <rect id="Rectangle_25" data-name="Rectangle 25" width="157" height="34" transform="translate(0.002 1107.126)" fill="#fff"/>
    </clipPath>
  </defs>
  <g id="Mask_Group_15" data-name="Mask Group 15" transform="translate(-0.002 -1107.126)" clip-path="url(#clip-path)">
    <g id="Untitled-1" transform="translate(0.001 1107.004)">
      <rect id="Rectangle_558" data-name="Rectangle 558" width="60.301" height="32.931" transform="translate(0 0.085)" fill="#212023"/>
      <g id="Group_14" data-name="Group 14" transform="translate(9.486)">
        <path id="Path_2" data-name="Path 2" d="M1710.946,1229.2c-1.394,0-2.222.021-2.988.062a18.182,18.182,0,0,0,.162-2.958v-10.7a24.557,24.557,0,0,0-.162-3.263h4.4a20.222,20.222,0,0,0-.162,3.2V1225.6h4.887a24.084,24.084,0,0,0,3.353-.141v3.891a25.939,25.939,0,0,0-3.353-.143h-6.14Z" transform="translate(-1707.958 -1204.465)" fill="#fff"/>
        <path id="Path_3" data-name="Path 3" d="M1875.089,1269.325a2.548,2.548,0,0,0,2.747,2.512,2.947,2.947,0,0,0,2.04-.749,2,2,0,0,0,.606-1.033l3.513.992a5.9,5.9,0,0,1-1.334,2.087,6.542,6.542,0,0,1-4.765,1.722,6.3,6.3,0,0,1-4.685-1.722,6.914,6.914,0,0,1-1.837-4.945c0-4.012,2.565-6.667,6.422-6.667a5.806,5.806,0,0,1,6.056,4.742,14.691,14.691,0,0,1,.3,2.655,3.514,3.514,0,0,0,.021.405Zm5.25-2.8a2.355,2.355,0,0,0-2.544-1.987,2.439,2.439,0,0,0-2.646,1.987Z" transform="translate(-1858.048 -1249.632)" fill="#fff"/>
        <path id="Path_4" data-name="Path 4" d="M2053.9,1228.531a3.962,3.962,0,0,1,.019-.446,5.673,5.673,0,0,1-4.078,1.46c-3.675,0-5.9-2.471-5.9-6.565a6.844,6.844,0,0,1,1.737-4.945,5.631,5.631,0,0,1,4.1-1.581,6.011,6.011,0,0,1,4.14,1.5c-.019-.3-.019-.487-.019-.77V1215.5a22.511,22.511,0,0,0-.162-3.182h4.14a22.7,22.7,0,0,0-.162,3.182V1226a24.022,24.022,0,0,0,.162,3.182h-3.978v-.649Zm-6.037-5.532a3.636,3.636,0,0,0,.928,2.674,2.793,2.793,0,0,0,1.959.77,3.233,3.233,0,0,0,3.109-3.506,3.142,3.142,0,0,0-3.131-3.385c-1.754,0-2.866,1.319-2.866,3.447" transform="translate(-2016.551 -1204.441)" fill="#fff"/>
        <path id="Path_5" data-name="Path 5" d="M2368.555,1148.923a47.12,47.12,0,0,0,.318-6.27v-20.688a44.88,44.88,0,0,0-.318-6.27h8.077a53.375,53.375,0,0,0-.28,6.27v3.355c0,.6,0,.958-.041,1.517a11.571,11.571,0,0,1,8.2-3c7.243,0,11.46,4.633,11.46,12.54,0,4.275-1.233,7.708-3.542,10.143a11.088,11.088,0,0,1-8.278,3.116,10.621,10.621,0,0,1-7.841-2.836c0,.12.04.64.04.839v1.281Zm14.087-19.009c-3.622,0-6.208,2.8-6.208,6.669,0,3.955,2.627,6.949,6.048,6.949,3.461,0,5.771-2.836,5.771-7.068,0-4.074-2.108-6.55-5.611-6.55" transform="translate(-2314.688 -1115.695)" fill="#ff7900"/>
        <path id="Path_6" data-name="Path 6" d="M2735.559,1226.243c0-7.988,5.094-13.059,13.133-13.059s13.133,5.073,13.133,12.98c0,7.948-5.252,13.219-13.174,13.219-8,0-13.093-5.113-13.093-13.14m7.6-.041c0,4.432,2.07,7.109,5.531,7.109s5.453-2.595,5.453-7.03c0-4.473-2.029-7.109-5.412-7.109-3.5,0-5.572,2.638-5.572,7.03" transform="translate(-2651.766 -1205.234)" fill="#ff7900"/>
        <path id="Path_7" data-name="Path 7" d="M3093.923,1248.8a26.891,26.891,0,0,0-1.989-3.634l-2.467-3.833-2.507,3.955a28.491,28.491,0,0,0-1.91,3.515h-9.311c1.035-1.2,2.189-2.676,2.945-3.754l6.447-9.106-5.692-7.988c-.2-.28-1.114-1.477-2.706-3.515h8.993a15.294,15.294,0,0,0,1.791,3.4l1.989,2.994,1.95-2.994a17.232,17.232,0,0,0,1.831-3.4h8.914c-.8.958-2.03,2.595-2.706,3.515l-5.651,7.988,6.368,9.025c.8,1.118,1.633,2.2,2.945,3.835h-9.234Z" transform="translate(-2964.206 -1215.571)" fill="#ff7900"/>
        <path id="Path_8" data-name="Path 8" d="M3452.931,1470.8a2.5,2.5,0,1,1,2.495-2.5,2.5,2.5,0,0,1-2.495,2.5m0-4.646a2.144,2.144,0,1,0,2.136,2.145,2.143,2.143,0,0,0-2.136-2.145" transform="translate(-3308.35 -1437.245)" fill="#444747"/>
        <path id="Path_9" data-name="Path 9" d="M3473.834,1485.159h.619a1.019,1.019,0,0,1,.282.034.6.6,0,0,1,.2.094.417.417,0,0,1,.122.145.4.4,0,0,1,.041.183.365.365,0,0,1-.032.154.433.433,0,0,1-.089.13.559.559,0,0,1-.137.1.865.865,0,0,1-.177.066l.649.851h-.348l-.619-.826h-.209v.826h-.3v-1.758Zm.3.843h.173a.631.631,0,0,0,.186-.026.434.434,0,0,0,.147-.075.322.322,0,0,0,.1-.117.335.335,0,0,0,.034-.156.354.354,0,0,0-.027-.145.312.312,0,0,0-.079-.113.34.34,0,0,0-.12-.073.434.434,0,0,0-.151-.026h-.263v.73Z" transform="translate(-3329.839 -1455.032)" fill="#444747"/>
      </g>
    </g>
  </g>
</svg>
