<?xml version="1.0" encoding="UTF-8"?><svg id="Layer_1" xmlns="http://www.w3.org/2000/svg" viewBox="0 0 131.03 131.02"><defs><style>.cls-1{fill:#f9d162;}.cls-2{fill:#fb8145;}.cls-3{fill:#f2633d;}.cls-4{fill:#f76c3e;}.cls-5{fill:#fff;}.cls-6{fill:#fc9d4e;}.cls-7{fill:#2faa87;}.cls-8{fill:#dfddd9;}.cls-9{fill:#302622;}</style></defs><circle class="cls-5" cx="65.44" cy="65.27" r="63.56"/><circle class="cls-3" cx="65.44" cy="65.5" r="63.79"/><circle class="cls-4" cx="68.68" cy="56.8" r="50.99"/><circle class="cls-2" cx="72.01" cy="42.83" r="36.23"/><circle class="cls-6" cx="72.93" cy="32.48" r="22.57"/><circle class="cls-1" cx="72.48" cy="29.29" r="9.45"/><polygon class="cls-9" points="33.54 45.55 5.63 89.99 61.46 89.99 33.54 45.55"/><polygon class="cls-9" points="63.93 19.32 19.54 89.99 108.33 89.99 63.93 19.32"/><polygon class="cls-8" points="63.93 23.23 47.33 49.66 80.54 49.66 63.93 23.23"/><polygon class="cls-9" points="98.02 45.55 70.11 89.99 125.94 89.99 98.02 45.55"/><polyline class="cls-8" points="47.45 49.44 45 53.46 52.7 49.51 54.24 56.1 59.22 49.44 62.36 58.06 65.54 49.51 71.37 60.2 72.63 49.51 87.09 60.2 80.43 49.44"/><g><polygon class="cls-8" points="97.92 48.66 89.08 62.87 106.77 62.87 97.92 48.66"/><polyline class="cls-8" points="89.12 62.8 87.81 64.92 91.92 62.84 92.74 66.32 95.4 62.8 97.08 67.35 98.78 62.84 101.89 68.48 102.56 62.84 110.28 68.48 106.73 62.8"/></g><path class="cls-9" d="M5.63,89.99H125.94s-24.53,41.87-60.44,39.07c-18.17-2.38-43.55-7.81-59.87-39.07Z"/><path class="cls-9" d="M68.93,129.31c-1.15,0-2.29-.04-3.44-.13-9.23-1.21-20.08-3.19-30.67-8.72-12.41-6.48-21.99-16.42-29.29-30.41l-.09-.17H126.13l-.1,.17c-.06,.1-6.26,10.6-16.77,20.61-6.17,5.88-12.61,10.45-19.12,13.58-7.01,3.37-14.13,5.07-21.21,5.07ZM5.82,90.11c7.27,13.86,16.79,23.72,29.11,30.15,10.56,5.51,21.39,7.49,30.59,8.69,8.17,.64,16.42-1.02,24.53-4.91,6.49-3.12,12.9-7.67,19.06-13.54,9.75-9.29,15.78-18.99,16.63-20.39H5.82Z"/><path class="cls-7" d="M67.6,127.26c-.55,0-1-.45-1-1v-17.87c-1.87,2.32-4.39,2.7-4.43,2.7-.54,.07-1.05-.31-1.12-.86-.07-.55,.31-1.05,.85-1.12,.21-.03,4.7-.79,4.7-7.26,0-.55,.45-1,1-1s1,.45,1,1v24.4c0,.55-.45,1-1,1Z"/><path class="cls-7" d="M60.28,117.1c-.13,0-.21,0-.23,0-.55-.03-.98-.5-.95-1.05,.03-.55,.49-.97,1.04-.95h0s2.96,.11,4.83-1.68c1.07-1.03,1.62-2.52,1.62-4.44,0-.55,.45-1,1-1s1,.45,1,1c0,2.49-.76,4.48-2.25,5.9-2.18,2.07-5.21,2.22-6.07,2.22Z"/><path class="cls-7" d="M60.28,122.35c-.13,0-.21,0-.23,0-.55-.03-.98-.5-.95-1.05,.03-.55,.49-.96,1.04-.95h0s2.96,.11,4.83-1.68c1.07-1.03,1.62-2.52,1.62-4.44,0-.55,.45-1,1-1s1,.45,1,1c0,2.49-.76,4.48-2.25,5.9-2.18,2.07-5.21,2.22-6.07,2.22Z"/><path class="cls-7" d="M67.76,127.26c-.55,0-1-.45-1-1v-24.4c0-.55,.45-1,1-1s1,.45,1,1c0,6.55,4.78,7.72,4.99,7.77,.54,.12,.88,.66,.76,1.19-.12,.54-.65,.87-1.18,.76-.04,0-2.64-.61-4.56-3.12v17.8c0,.55-.45,1-1,1Z"/><path class="cls-7" d="M75.08,117.1c-.86,0-3.89-.15-6.07-2.22-1.49-1.42-2.25-3.41-2.25-5.9,0-.55,.45-1,1-1s1,.45,1,1c0,1.92,.55,3.41,1.62,4.44,1.87,1.79,4.8,1.68,4.83,1.68,.52-.02,1.02,.4,1.04,.95,.03,.55-.4,1.02-.95,1.04-.02,0-.1,0-.23,0Z"/><path class="cls-7" d="M75.08,122.35c-.86,0-3.89-.15-6.07-2.22-1.49-1.42-2.25-3.41-2.25-5.9,0-.55,.45-1,1-1s1,.45,1,1c0,1.92,.55,3.41,1.62,4.44,1.87,1.79,4.8,1.69,4.83,1.68,.52-.03,1.02,.4,1.04,.95,.03,.55-.4,1.02-.95,1.04-.02,0-.1,0-.23,0Z"/><path class="cls-7" d="M48.38,122.57c-.37,0-.67-.3-.67-.67v-12.02c-1.26,1.56-2.95,1.81-2.98,1.82-.37,.05-.71-.21-.76-.58-.05-.37,.21-.7,.57-.76,.14-.02,3.16-.53,3.16-4.88,0-.37,.3-.67,.67-.67s.67,.3,.67,.67v16.42c0,.37-.3,.67-.67,.67Z"/><path class="cls-7" d="M43.45,115.74c-.09,0-.14,0-.15,0-.37-.02-.66-.33-.64-.71,.02-.37,.33-.65,.7-.64h0s1.99,.07,3.25-1.13c.72-.69,1.09-1.7,1.09-2.99,0-.37,.3-.67,.67-.67s.67,.3,.67,.67c0,1.68-.51,3.01-1.51,3.97-1.46,1.39-3.51,1.5-4.08,1.5Z"/><g><polygon class="cls-8" points="33.48 48.72 24.63 62.8 42.32 62.8 33.48 48.72"/><polyline class="cls-8" points="24.66 62.74 23.35 64.91 27.46 62.78 28.28 66.33 30.95 62.74 32.62 67.38 34.32 62.78 37.44 68.53 38.11 62.78 45.83 68.53 42.28 62.74"/></g><path class="cls-7" d="M43.45,119.27c-.09,0-.14,0-.15,0-.37-.02-.66-.33-.64-.71,.02-.37,.33-.65,.7-.64h0s1.99,.07,3.25-1.13c.72-.69,1.09-1.7,1.09-2.99,0-.37,.3-.67,.67-.67s.67,.3,.67,.67c0,1.68-.51,3.01-1.51,3.97-1.46,1.39-3.51,1.5-4.08,1.5Z"/><path class="cls-7" d="M48.49,122.57c-.37,0-.67-.3-.67-.67v-16.42c0-.37,.3-.67,.67-.67s.67,.3,.67,.67c0,4.41,3.22,5.2,3.35,5.23,.36,.08,.59,.44,.51,.8-.08,.36-.43,.59-.8,.51-.03,0-1.78-.41-3.07-2.1v11.98c0,.37-.3,.67-.67,.67Z"/><path class="cls-7" d="M53.41,115.74c-.58,0-2.62-.1-4.08-1.5-1.01-.96-1.51-2.29-1.51-3.97,0-.37,.3-.67,.67-.67s.67,.3,.67,.67c0,1.29,.37,2.3,1.09,2.99,1.26,1.21,3.23,1.13,3.25,1.13,.35-.02,.68,.27,.7,.64,.02,.37-.27,.68-.64,.7-.01,0-.07,0-.15,0Z"/><path class="cls-7" d="M53.41,119.27c-.58,0-2.62-.1-4.08-1.5-1.01-.96-1.51-2.29-1.51-3.97,0-.37,.3-.67,.67-.67s.67,.3,.67,.67c0,1.29,.37,2.3,1.09,2.99,1.26,1.21,3.23,1.13,3.25,1.13,.35-.02,.68,.27,.7,.64,.02,.37-.27,.68-.64,.7-.01,0-.07,0-.15,0Z"/><path class="cls-7" d="M85.04,121.76c-.3,0-.55-.25-.55-.55v-9.81c-1.03,1.27-2.41,1.48-2.43,1.48-.3,.04-.58-.17-.62-.47-.04-.3,.17-.57,.47-.62,.12-.02,2.58-.43,2.58-3.98,0-.3,.25-.55,.55-.55s.55,.25,.55,.55v13.39c0,.3-.25,.55-.55,.55Z"/><path class="cls-7" d="M81.02,116.19c-.07,0-.11,0-.13,0-.3-.01-.54-.27-.52-.57,.01-.3,.27-.53,.57-.52h0s1.62,.06,2.65-.92c.59-.56,.89-1.38,.89-2.44,0-.3,.25-.55,.55-.55s.55,.25,.55,.55c0,1.37-.42,2.46-1.24,3.24-1.19,1.14-2.86,1.22-3.33,1.22Z"/><path class="cls-7" d="M81.02,119.07c-.07,0-.11,0-.13,0-.3-.01-.54-.27-.52-.57,.01-.3,.27-.53,.57-.52h0s1.62,.06,2.65-.92c.59-.56,.89-1.38,.89-2.44,0-.3,.25-.55,.55-.55s.55,.25,.55,.55c0,1.37-.42,2.46-1.24,3.24-1.19,1.14-2.86,1.22-3.33,1.22Z"/><path class="cls-7" d="M85.13,121.76c-.3,0-.55-.25-.55-.55v-13.39c0-.3,.25-.55,.55-.55s.55,.25,.55,.55c0,3.6,2.62,4.24,2.74,4.26,.29,.07,.48,.36,.41,.65-.07,.29-.35,.48-.65,.42-.02,0-1.45-.34-2.5-1.71v9.77c0,.3-.25,.55-.55,.55Z"/><path class="cls-7" d="M89.14,116.19c-.47,0-2.13-.08-3.33-1.22-.82-.78-1.24-1.87-1.24-3.24,0-.3,.25-.55,.55-.55s.55,.25,.55,.55c0,1.05,.3,1.87,.89,2.44,1.03,.98,2.63,.92,2.65,.92,.28-.01,.56,.22,.57,.52,.01,.3-.22,.56-.52,.57-.01,0-.05,0-.13,0Z"/><path class="cls-7" d="M89.14,119.07c-.47,0-2.13-.08-3.33-1.22-.82-.78-1.24-1.87-1.24-3.24,0-.3,.25-.55,.55-.55s.55,.25,.55,.55c0,1.05,.3,1.87,.89,2.44,1.03,.98,2.63,.92,2.65,.92,.28-.01,.56,.22,.57,.52,.01,.3-.22,.56-.52,.57-.01,0-.05,0-.13,0Z"/><path class="cls-9" d="M65.5,131c-17.5,0-33.94-6.81-46.32-19.18C6.81,99.44,0,83,0,65.5S6.81,31.56,19.18,19.18,48,0,65.5,0s33.94,6.81,46.32,19.18c12.37,12.37,19.18,28.82,19.18,46.32s-6.81,33.94-19.18,46.32c-12.37,12.37-28.82,19.18-46.32,19.18Zm0-127.12c-16.46,0-31.94,6.41-43.57,18.05C10.29,33.56,3.88,49.04,3.88,65.5s6.41,31.94,18.05,43.57c11.64,11.64,27.11,18.05,43.57,18.05s31.94-6.41,43.57-18.05c11.64-11.64,18.05-27.11,18.05-43.57s-6.41-31.94-18.05-43.57C97.44,10.29,81.96,3.88,65.5,3.88Z"/><path class="cls-8" d="M57.02,91.08c-.03,.14-.2,.01-.3,.1-.06,.04-.1-.06-.1,.06-.03,.01,.03,.08,.04,.08,.01,.04,0,.06,0,.07-.01,.13-.23-.16-.27-.06,.04,.1,.25,.06,.25,.21-.06,.01-.16-.09-.23-.04,.03,.04,.13,.08,.2,.1,.03,.03,.03,.06,.03,.07,0,.17-.16,.03-.23,.03-.04,.1,.21,.1,.25,.23,.01,.01-.01,.06-.01,.07,.01,.1,.07,.27-.06,.27,.03,.07,0,.16-.11,.11-.06-.03,.01,.13-.07,.11-.01-.06-.03-.03-.04,0-.03-.01,.01-.07-.01-.07-.04,.07-.07,.01-.13-.07-.03,.25-.11,.07-.14-.04-.01,.04,.03,.16-.01,.18,0-.01-.01-.07-.03-.07-.03,.04-.11-.03-.14,.07-.03-.1-.08-.01-.11,0-.04,0-.06-.07-.08-.04-.03,.01-.04,.01-.07,.01s-.03-.04-.07,0c0,.01-.01,.01-.01,0-.03-.1-.13,.03-.18,0-.04,.01-.03-.07-.07-.01,0,.03-.01,.08-.04,.03-.03,.01-.04,0-.06-.06-.04,.1-.08,.11-.14,.04h-.01c-.07,.04-.17,.01-.25,.04-.03,.03-.04-.08-.06-.03-.08,.1-.28,.01-.37,.06-.04,.03-.06-.07-.07-.01-.03-.16-.04-.01-.08,.01-.04-.08-.14,.03-.17-.08h-.03s.03-.2-.03-.1c-.01,.07,0,.16-.08,.14-.04,.03-.11,0-.16,0,0,.03-.01,0-.01-.01-.04-.11-.08,.1-.18,.01,0,.2-.03,.35-.18,.24-.13,.03-.14-.14-.14-.27h-.01s0-.1-.01-.01c-.04-.07-.04-.13-.06,.01h-.01s-.01-.01-.01-.03c-.01,.03-.04,.04-.07,.03-.04,.04-.07,.03-.07-.06h-.01s-.1,.13-.11,0h-.03c-.03,.07-.07,.08-.1,.07,0,.03,.03,.07,0,.1t-.01,.01s.03,.03,.04,.04h-.13s-.03,0-.03,.01c-.01,0-.03,0-.03-.01h-.03s-.04,.03-.08,.01c0-.01-.01-.01-.04,0h-.37s-.01-.01-.03-.01c-.03-.01-.07-.03-.07,0h-.14s-.03,0-.01,.01c-.04,.01-.2-.01-.21,.03v-.03s-.06,0-.08-.01c-.07,.03-.17,0-.24,.01-.01-.01-.06-.01-.08-.01-.01-.01-.06-.03-.06,0-.01,.01-.03,.01-.03,0-.01,0-.06-.03-.01-.01-.03,0-.06-.04-.08,0v-.03h-.04s-.01,.03-.04,.03h.04s-.04,.03-.08,.03t-.01-.01h.01s-.11,0-.11,.04v-.03h-.04s.01,.01,.04-.01h.01s-.01-.03-.01,0c-.03,0-.06,0-.07-.01h.03v-.03h0s-.01-.04,0-.06c-.01,0-.03-.01-.04-.03,0-.03,.01,.01,.04-.01h-.03v-.04h-.01s-.01-.11,0-.17c-.03-.01,0-.04,0-.07-.03-.03-.01-.04,.01-.04l-.03-.03v-.04s.03,0,0-.03c-.03-.27-.04-.55-.03-.81h-.01c-.03-.48-.04-1.12,.04-1.57-.07-.01-.13-.01-.17,.04-.06-.1-.13,0-.17,0-.08-.01-.14-.06-.21-.01-.06,.01-.08-.06-.14,0-.03,.03-.04-.04-.08-.03-.08-.03-.16,.06-.24,.03-.06,.01-.06-.07-.1-.01,0,.04-.03,.08-.06,.04-.06,0-.08,0-.11-.07-.06,.1-.13,.11-.21,.04-.1,.04-.24,.03-.35,.04-.03,0-.1,.03-.13-.01,.01-.03-.04-.03-.04,0-.14,.1-.44,0-.55,.06-.06,.03-.1-.07-.13-.01-.07-.16-.07-.01-.13,.01-.07-.08-.21,.04-.28-.08h-.04c.06-.11-.06-.2-.06-.04-.01,.17-.24,.09-.35,.1,0,.03-.03-.01-.03-.03-.04-.06-.07-.06-.07,0-.16,.08-.3-.06-.47-.03l-.08-.06s-.03-.04-.04-.03c-.07,.03,.07,.06,0,.1-.04-.03-.07-.03-.1,.03-.01,0-.03-.01-.04-.03,0-.01-.03-.09-.04-.01-.06-.06-.08-.13-.08,.03h-.03c-.07-.16-.18,.16-.25-.06h-.01s-.13,.11-.16,.01c-.11,.13-.4,.16-.51,.18-.04-.1-.24-.01-.3-.06-.14,.04-.4,.04-.55,.09-.14,.08,.24-.33,0-.3,.04,.1-.2,.24-.31,.31,0-.01-.01-.07-.03-.07-.08,.07-.2-.01-.28,.07-.03,.01-.03-.08-.06-.04-.06,0-.1,0-.17-.03-.1-.06-.16,.06-.23,.01-.04-.06,.04-.3-.06-.3-.78,.54-.28-1.85-.35-2.25-.01-.89-.08-1.78-.16-2.72,.13-.66-.1-1.4-.04-2.09,.03-.23-.16-.91,.07-1.05,.08-.13,.06,.11,.2,.01,.28-.18,.1,1.03,.16,1.16,0,.31,.08,.91,.13,1.19,.07-.01-.01-.2,.13-.16-.18-.08-.08-.24-.06-.37-.03-.04-.04,.01-.07-.01,0-.07,.03-.08,.08-.08,.01-.01,0-.07-.03-.06-.03,.03-.06,.06-.06,.01,.01-.06,.13-.01,.06-.11,.04-.3-.04-.83-.06-1.15,.06,0,.06,.04,.06,.07,.06-.13-.04-.4,.1-.54,.14-.01,.13,.14,.11,.23,.08,.11,.04-.31,.18-.16,.1,0,.1-.1,.18-.06,.07,.08,.07,.24,.1,.37,.1-.09,.06-.13,.03-.2,.01-.08,.04-.35,.13-.28,.03-.03,.08-.07,.11-.04,.04,0-.03,.08-.03,.11,0,.06,.06,.13,.08,.17,0,.4,.13,.72,.11,1.12-.04,.04,.03,.06,.06,.01,.08-.78-.44-1.53,.11-2.08,.17,.1,.01,.37,.11,.55,.06,.07-.07,.2,.06,.18,.03,.04,.1-.09,.1-.1,.03-.01,.06-.01,.07,0,.11,.06-.17,.41-.06,.5,.11-.1,.03-.44,.21-.51,.01,.1-.08,.33-.06,.42,.08-.03,.06-.42,.18-.42,.18,0,.01,.31,.04,.41,.1,.06,.1-.44,.23-.51,0-.04,.06,0,.07,0,.13-.04,.27-.13,.27,.08,.13-.11,.14,.04,.11,.18,0,.1,.14-.06,.11,.1-.04,.04-.01,.07,.01,.1-.03,.04-.07-.01-.08,.03,.08,.08,.03,.14-.06,.25,.25,0,.06,.2-.04,.28,.04,0,.17-.08,.18-.01-.01,.01-.07,.03-.07,.06,.06,.06-.03,.21,.07,.27-.1,.06,0,.14,0,.2-.04,.11-.03,.2-.01,.3-.04,.08,0,.1,0,.16-.13,.11,.1,.31-.03,.42-.03,0,.01,.03,.01,.04,.06,0,.1,.04,.04,.08,0,.06,0,.1-.07,.13,.11,.06,.13,.14,.06,.24,0,.14,.08,.47,.03,.58-.03-.01-.03,.06,0,.04,.1,.18,0,.54,.06,.68,.03,.06-.07,.1-.01,.14-.16,.09-.01,.09,.01,.16-.08,.07,.04,.25-.08,.33v.06c-.13-.06-.18,.07-.03,.07,.17,.03,.07,.3,.08,.42,.03,0,0,.03-.01,.03h-.01c.91,.04,1.77-.06,2.7-.11,.59,.11,1.26-.08,1.88-.03,0-.13-.06-.37,.08-.4-.07-.31-.03-.5,.07-.76-.03-.47,.01-.86,0-1.3,.03-.3,.01-.89,.03-1.17-.01-.18,.13-.01,.16-.11,0-.08-.08,.01-.13-.04-.11-.14,.06-.1,.07-.17-.06-.03-.13-.06-.08-.16,.01-.14-.06-.31,.07-.37-.03-.08,0-.11,.06-.14-.03-.04-.06-.04-.1,.01,0,.03-.01,.06-.04,.03,.01-.1-.06-.27,.08-.3-.1-.07-.14-.4,.01-.41h.03c-.03-.07-.1-.04-.13-.07-.06-.06-.01-.16,.06-.13-.03-.01,0-.08-.04-.08-.1-.07-.01-.24-.04-.37,0-.04-.01-.16,.04-.16,.06-.16-.17-.38,0-.51-.16-.06-.07-.4-.11-.55l-.07-.58c.25-.66,.41,1.06,.25,1.13,.01,.04,.11,.11,.06,.16-.08,.11-.1,.06-.08-.04-.03-.03-.08,.04-.06,.08,.03,.03,.04,.1,.1,.06,.07-.08,.08,.04,.04,.09-.08,.1,.04,.1,.04,.18-.01,.1-.18,.16-.06,.24,0,0,.01-.01,.01-.04,.03-.11,.06,.08,.04,.11l-.04,.06v.03c.06,.07-.03,.08-.01,.16,.08-.03,.08,.04,.03,.1v.07c.07,.06,0,.2,0,.25,.1,.1,.07,.21,.04,.31,.04,.11,.04,.41-.06,.47,.07,.03,.08,.16,.08,.25,0,.06-.08,0-.08,.04,.11,.03,.07,.3,.08,.4,.03,.14-.07,.17-.1,.25,.21-.01,.06,.47,.1,.62,.03,.08-.03,.25-.03,.34,.01,.14,.06,.3-.07,.34,.27,.16-.04,1.06,.14,1.32,.06,0,.07-.04,.07-.11,0-.58,.01-1.32,.03-1.61,.07-.66-.11-1.91,.06-2.57-.17-.03-.04-.95-.08-1.06-.03-.55-.06-1.13-.1-1.71,0-.01,.01-.07,.04-.04,.14,.03,.21-.01,.37,.01,.2,.03,.35-.11,.37,.18-.03,.51,.16,1.26-.04,1.73,.21,.14,.03,.66,.13,.93-.03,.11,0,.23,.1,.23-.03-.03-.03-.06-.01-.08,.03,0,.1,.08,.11,.03-.04-.04-.1-.1-.1-.18,.13,.07,.24,.01,.35-.14-.2,.09-.33,.17-.35-.04,.1-.14-.13-.41,.07-.45,.01,.03,.03,.03,.03,0-.03-.07-.13-.03-.14-.14,.14,0,.21-.06,.23-.17-.11,0-.13-.08-.2-.16-.07-.11,.08-.03,.1-.08-.16-.13-.14-.54-.14-.72,.01-.07-.1-.85,0-.89,.08-.04,.18-.11,.27-.04,.03,.03,.06,.03,.07,0,.1-.06,.14,.1,.3,.01,.17-.06,.33-.13,.51-.14,.11-.04,.17-.04,.27,0,.16-.13,.5-.11,.42,.17-.04,.23,.07,.93-.1,1.34-.14,.08,.08,.06,.06,.18-.06,.11,.13,.44-.08,.41,.01,.07,.1,.11,.11,.18-.04,0-.16-.18-.18-.18-.1-.06-.14-.08-.18-.08,.03,.04,.13,.18,.2,.17-.01,.07-.04,.06-.08,.1,.03,0,.08,.07,.11,.04,.01-.03,.1,.04,.11,.04,.04,.06,.01,.09-.06,.09-.08,.03-.01,.06,.04,.07,.03,0,.01,.07,0,.08-.1-.01-.17-.08-.13,.09,.03-.03,.13,0,.14,0,.06-.07,.06,.1,0,.08l-.1-.03c-.08,.11,.11,.07,.13,.18-.07,.04-.13,.04-.14-.01-.11,.01,.03,.18,.07,.14,.11-.1,.1,.03,.04,.09l-.06,.06c-.11,.01-.03,.16,.01,.14,.03,.04,.04-.01,.07,.03,.11,0-.01,.18,.04,.25,.01,.06,0,.21-.07,.18-.03-.03-.04-.06-.11-.06-.08-.08-.07-.03-.04,0h.04c-.1,.18,.1,.07,.06,.17-.01,.04,.04,.14,.06,.06,.03-.03,.06-.03,.07-.01,0,.1-.08,.1-.03,.2,.07,.11,.01,.44-.1,.55,.14-.01,.2,.25,.06,.18,.07,.14,.11,.16-.04,.34v.04c.2-.13,.04,.42,.11,.5l-.03,.04c-.07,.01,.14,.35-.08,.31-.03,0-.04,.01-.06,.03,.2,.16,.23,.57,.04,.72,.25-.11,.07,.51,.14,.65v.04c-.04,.74,.08,1.67-.08,2.42,.11,.17,.01,.71,.04,.91,.42,0,.85-.07,1.29-.11,.1,.16,1.74-.21,1.68,.06,.06,.1-.07,.07-.03,.2,.1,.25-.5,.1-.64,.14-.17-.01-.48,.07-.64,.11,.01,.07,.11-.01,.07,.13,.06-.16,.11-.1,.2-.06,.03-.03,0-.04,.03-.07,.06,0,.01,.08,.04,.08,.01,0,.01-.01,.01-.03-.01-.01-.01-.06,0-.06,.03,.01,0,.13,.06,.06,.14,.06,.45-.03,.61-.03,0,.03-.01,.04-.04,.04,.06,.04,.25-.01,.28,.11,0,.08-.06,.13-.13,.1-.07,.07,.17,.07,.07,.17,.04,.23,.01,.23-.18,.28,.04,.13,.13-.03,.21,.08,.03,0,.06,.04,.03,.07,.01,.03,.03,.1,0,.1,0,.06-.03,0-.04-.01-.04,0-.08,.06-.1,.07-.21,0-.4,.13-.61,.1-.03-.03-.03,.04-.01,.06,.35,.08,.93-.35,1.05,.07,.01,.03,.03,.04,.04,.07Zm-13.33-1.5c.01-.06,0-.07-.03-.07,0,.03,0,.06,.01,.07h.01Zm.66-.35s0,.07,.03,.1c-.01-.03-.03-.06-.03-.1Zm.1,.2s-.01-.01-.01-.03c-.01,.01-.01,.03-.03,.04-.04,0-.06,.01-.06,.03,.01,.01,.03,.03,.06,.03,.06-.01,.04-.03,.04-.07Zm-.03,.11s-.06,0-.06,.03h.04s.01-.01,.01-.03Zm1.02-7.07s.07,.03,.1-.01c-.01-.01,0-.11-.03-.11-.03-.06-.08-.08-.07,0,0,.01,.01,.03,.01,.04,0,.03-.06,.09-.01,.09Zm0,1.99l.06,.03s0-.06-.01-.06l-.04,.03Zm.2-2.36c-.03-.06-.13,.03-.16,.04-.08,.06-.01,.14,.03,.07l.07-.03c.06,.03,.06-.06,.06-.08Zm-.14,2.43s-.1,.2-.01,.13c.01,0,.01-.01,.03-.04,0-.04,.07-.08-.01-.08Zm-.01-1.73v-.04c.1-.04,0-.06,0-.1-.03,.07-.07,.51,.06,.3-.03-.04,.01-.13-.06-.16Zm.04,.52h-.01s-.03,0-.06,.03c.01,0,.07,0,.07-.03Zm-.03,.51s.04-.11,0-.1c-.06-.01-.06,.1,0,.1Zm.03,1.27v-.06c-.06,0-.07,.03-.07,.06h.07Zm-.01,.2s-.06-.03-.06,0l.03,.03,.03-.03Zm.14-3.66s-.23,0-.13,.06c.03,.04,.13-.04,.07,.06,0,.06-.08-.01-.13,0-.06,.04,.07,.11,.14,.1,.03,.01,.08-.24,.04-.21Zm-.11,1.41c-.1-.03-.1,.27-.01,.17,.01-.03,.01-.08,.01-.17Zm-.07,.59s.04-.04,.04-.07c-.04,.03-.06,.06-.04,.07Zm.04-1.6s.06-.01,.06-.04c-.01-.06-.1-.03-.08,.03h.03Zm.1,.51v-.03s-.11,0-.13,.04h0s.04,.03,.06,.01c.03-.01,.04-.03,.07-.03Zm-.08,.91s-.03,.06-.03,.08c.04,0,.07-.07,.03-.08Zm-.03,.61h0Zm.06,.14s-.03-.03-.06-.03v.06l.06-.03Zm-.06,.62v0Zm.13-2.9c-.06-.01-.03,.16,.01,.07,.01-.01,.01-.07-.01-.07Zm.01-.41s-.01,.04-.03,.06c.03,0,.06,.01,.07-.03,.03-.06-.03-.11-.04-.03Zm.25,3.59v-.03h-.04c-.01,.07,.04,.06,.04,.03Zm2.22,4.1v.03h0s.01-.04,0-.03Zm.18,.41v-.03c-.06-.01-.04,.04-.01,.06v-.03Zm.04-.37s-.01-.04-.04-.04v.06h.04Zm.44-.01s-.16-.1-.1-.01c0,.03,.06,.03,.08,.06t.01-.04Zm.06-.06v.06h0s.01-.04,0-.06Zm.24,.06h-.04v.06s.04-.03,.04-.06Zm.1,.06v-.06h-.01v.06Zm.24-.1c-.06,0-.04,.08,0,.07,.07,.01,.06-.07,0-.07Zm.62-2.19c.18,.06,.35,0,.58-.01v-.16c-.35-.01-.89,.06-1.23,.13,.03,.06,.17-.03,.13,.11,.08-.17,.2-.07,.31-.04,.04-.03-.01-.06,.03-.07,.06-.01,.06,.03,.06,.07,.01,.03,.06,.01,.04-.03-.01-.01-.03-.04,0-.04,.04,0,.01,.11,.08,.04Zm-.45,2.25s-.04-.04-.06-.03c.01,.01,.03,.03,.06,.03Zm.04-.01s.06,.07,.07,.03c.03-.04-.04-.03-.07-.03Zm.2,.01s-.03-.03-.06-.06c.01,.03,0,.07,.03,.07h.03Zm.2,.01c.03-.1-.23-.1-.14-.01,.03,.01,.07,.01,.14,.01Zm.34-.04c-.07-.03-.42-.09-.25,.04,.04-.03,.11,.03,.13-.04h.04s.03,.06,.04,.03,.03-.03,.04-.03Zm.27-1.09s-.01-.04-.01-.06c-.07,.06-.38-.04-.3,.07,.11,0,.21,0,.31-.01Zm-.16,1.2s0-.1-.03-.11h-.03s.03,.07,.03,.11h.03Zm.2-.16s-.06,0-.08,.01c-.01-.01-.06-.06-.06-.01-.03,.01-.03,.07,0,.08,.01,0,.1,.01,.1-.01l.04-.04v-.03Zm.21-8.8h0s-.04-.03-.04,0h.04Zm0,2.76h-.03v.03h0l.03-.03Zm0-.98h-.03v.03l.03-.03Zm.01-.89s-.01,0-.01,.01h.01Zm-.01,1.61s.04-.01,.04-.01c0,0,0-.01,.01-.04v-.04s-.04,.01-.04,.04,0,.04-.01,.06Zm.04,.68h.03s0-.06-.01-.07c0,.01-.03,.06-.01,.07Zm.1,8.6s-.03,.01-.07-.03v.03h.07Zm-.04,.3h-.03v.03h.03v-.03Zm.01-.06h-.01s.01,.01,.01,0Zm.08-6.59h-.04s-.04,.03-.04,.1c.1,.01,.08-.07,.08-.1Zm0,6.58h-.01s.01,.01,.01,0Zm.04-.11h0Zm0,.25h-.04s.03,.01,.03,0h.01Zm-.01-.45h.01v0Zm0,.34s0-.01-.01-.01h.01Zm0,.08h-.01s.01,.01,.01,0Zm.01-.23s-.01-.03-.01-.03c0,.01,.01,.03,.01,.03Zm.16-9.83s-.03-.01-.03-.01h-.01v.04l.04-.03Zm.1-1.81s-.03-.01-.06-.01c-.01,.01-.03,.01-.03,.01,.03,.03,.06,0,.08,0Zm-.03,2.53s-.03,.06-.03,.08h.03v-.08Zm.16-1.02c-.07-.03-.11-.04-.11-.04,0,0-.01,.01-.06,.04,.04,.04,.1,.04,.17,0Zm-.16-1.66s.06,.04,.08,.01c-.01-.01-.04-.03-.06-.04l-.03,.03Zm0,1.22v.04h.03v-.04h-.03Zm.11-1.33h0Zm.06,3.64s-.01-.01-.01-.01h.01Zm.06-2.21h-.04v.04l.04-.04Zm.08-.75l-.04-.04s-.01,.01-.04,.06c.01,.01,.04,.01,.08-.01Zm.04-.31c.06,0,.08-.01,.1-.04-.01,.03-.07,.03-.08,.01,0,0,0,.01-.01,.03l-.04-.13s-.01-.01-.06-.04c-.07,.06,.01,.11,.1,.17Zm-.01,.78l-.07-.07s0,.03-.01,.07h.08Zm-.07-1.16h0Zm.04,1.57s-.01,.01-.01,.04v-.03h.01Zm0,1.33h0Zm.06-2.08h0Zm.03,.61h.01v-.06s-.03,.06-.01,.06Zm.06,2.11h-.06v.04s.04-.01,.04-.03h.01Zm.04-2.86v-.04l-.06,.03v.04s.06-.01,.06-.03Zm-.01,1.49l-.03-.03v.03s.03,.06,.03,0Zm0-1.2h0Zm.01,1.56h-.01v0Zm.04-1.02c.01,.14,.17,.06,.06,0h-.06Zm0,.2c.06,.03,.1,.04,.1,.04l.04-.13-.14,.08Zm.03,.33h0Zm0-.65c.06,.03,.1,.04,.11,.04,.03-.09-.01-.11,0-.18l-.11,.14Zm.13,1.47s-.03-.04-.06-.04c-.06-.01-.03-.01-.07-.01,.04,.06,.08,.07,.13,.06Zm-.08,9.07h0Zm0-10.12s-.03,.07,0,.07c0,.06,.13,.16,.14,.07-.01-.04-.01-.11,.03-.11,.06-.03,.04-.1,.04-.13,0,0-.03,.01-.07,.04-.03,0-.08,.1-.14,.06Zm-.01,.85h0Zm.01,1.08h0Zm0,8.33s0-.01-.01-.01h.01Zm.03-7.78h-.03s.01,.01,.03,.01h0Zm0,.95s-.03,0-.03,.01h.03Zm0,6.66l-.03-.03s.01,.03,.03,.03Zm.01-9.66c.08,.04,.14,.1,.23,.01h-.14s-.03,0-.08-.01Zm.11,1.61s-.06-.06-.08-.04c.03,.04,.04,.06,.04,.06,0,0,.01,0,.04-.01Zm-.04,.14h-.04s.04,.06,.04,0Zm.1,.55s-.06,0-.13,.01c.07,.04,.1,.07,.1,.07,.01,0,.03-.07,.03-.08Zm-.1,.65h-.03v.03h.03v-.03Zm.01-4.61s0,.01-.01,.01h.01Zm0,1.56h.04s-.01-.04-.06-.06c.01,.04,.01,.06,.01,.06Zm-.01,1.23h.01v-.03h-.01v.03Zm.04,.79h0Zm-.04,.18h0Zm.1-4.8s-.03-.04-.03-.04c0,0-.01,0-.06,.01,.04,.06,.07,.07,.08,.03Zm-.08,1.75v.04l.04-.03v-.04h-.03v.03Zm.04,1.3s0-.07-.04-.06c0,.01-.01,.06-.01,.06h.06Zm.04-1.95s-.07,0-.08,.06c.06,0,.08-.01,.08-.04h0Zm-.06,.18h0Zm-.03,1.9s.04,.07,.08,.08l-.04-.08h-.04Zm.03,.33v.03h.06s-.01-.06-.01-.06c-.03,0-.04,.01-.04,.03Zm.04,.68h.01l-.04-.04s0,.04,.03,.04Zm0,.45s.03,.07,.06,.1v-.1h-.06Zm.08-4.4v-.03h-.04s.01,.03,.04,.03Zm-.04,1.54s.03-.03,.06-.07c-.01-.03-.06,.04-.06,.04v.03Zm0,1.58v0h0Zm.04,.62l-.03-.03h-.01v.04h.04Zm.06,1.27s-.06-.04-.06-.04l-.04,.04s.07-.01,.1,0Zm-.08-4.5v.04l.03-.03h-.03Zm.14,.25s-.07-.1-.07-.1h-.07s.04,.08,.07,.08c.04,.01,.06,.01,.07,.01Zm-.11,1.47h-.03v.06s.07-.06,.03-.06Zm.11,.25v-.03s-.1,.01-.11,.01c0,0-.01,.01-.03,.04,.06,0,.1-.01,.14-.03Zm-.14,2.29l.03,.03v-.04h-.03Zm.08-3.08s-.01,.01-.04,.06c-.11,.04,.04,.11,.08,0h0l-.04-.06Zm-.06-1.47h0Zm.01,1.44s-.01-.04-.01-.06v.04h.01Zm.04,1.03h0s-.03,0-.03,0h.03Zm-.03,.89h0Zm.04,1.03h-.04v.03h.03s.01,0,.01-.03Zm-.01-3.21h.06s-.03-.07-.06-.07v.07Zm.01,3.93h-.01v.04s.01-.01,.01-.04Zm0-4.91s.07,0,.08-.06c-.04-.01-.06-.03-.06-.03,0,0-.01,.03-.03,.09Zm.08,1.5s-.06,.04-.06,.04c0,0-.01,.01-.03,.06,.03,.14,.21-.11,.08-.1Zm.07,2.28c-.07-.04-.11-.06-.11-.06h-.04c.03,.07,.08,.09,.16,.06Zm-.13-3.93s.04,.01,.08,0c-.01-.04-.03-.07-.03-.07,0,0-.01,.03-.06,.07Zm0,3.42h0Zm.33-2.39s-.07-.03-.13-.01c-.11,.01-.06,.01-.14,.01,.08,.08,.21,.01,.27,0Zm-.23,1.24h-.01v.03s.01-.01,.01-.03Zm-.01,.72v.04s.01-.01,.01-.03h-.01Zm.01-2.79c.06,.03,.1,.04,.14,.01-.06-.04-.08-.06-.08-.06,0,0-.01,.01-.06,.04Zm.1,2.32h-.1s.06,.01,.1,0Zm-.01,2.72h-.08s.06,.01,.08,0Zm-.06-4.6v.03h.03l-.03-.03Zm.03,1.33s-.03-.03-.03,0h.03Zm-.01-2.21v.03l.04-.03s-.03-.01-.03-.01t-.01,.01Zm.08,1.66c0-.06-.03-.06-.08-.04l.08,.04Zm-.04,2.84l-.03-.03s-.01,.03-.01,.03h.01s.03,.01,.03,0Zm0-4.23s-.01,0-.03,.01c.03,.07,.07,0,.11,0,.01,.13,.08,.11,.14,.16-.03-.1-.07-.16-.14-.16-.06-.01-.08-.01-.08-.01Zm.01,1.75h0Zm.07,2.12h-.03v.03l.03-.03Zm0-3.52s-.01,.04,0,.06v-.04h0Zm.06,1.23v-.03s0-.01,0-.01c-.01,0-.01,.01-.01,.04h.01Zm0-1.09v.03s.01-.01,.01-.03h-.01Zm.01-.64s.04,.07,.07,.07l-.07-.07Zm.13,3.17s-.04-.04-.07-.03c-.04,.01-.01,.01-.06,.01,.04,.06,.08,.06,.13,.01Zm-.08-.86v.03h.03l-.03-.03Zm.07,1.4s-.06-.01-.08,.04l.08-.04Zm-.03-2.52s-.03-.03-.04-.01h0s0,.03,.03,.03h.01Zm0,.21h.03v-.04s-.03,.03-.03,.04Zm.14,.23s.04-.03,.07-.08c-.03,.03-.17-.01-.18-.01,0,0-.01,0-.03,.01,.07,.06,.11,.08,.14,.08Zm-.11,1.84h0Zm.11,1.08l-.04-.04h-.06s.08,.01,.1,.04Zm-.04-3.73s.03-.06,.03-.06h-.04s-.03,.07,.01,.06Zm-.03-.27h0Zm0,1.37h.01s.03,.01,.08-.01c-.04-.01-.07-.01-.1,.01Zm.06,1.64v-.03s-.07,.03-.03,.04h.03Zm-.04,.2v.03s.04-.01,.04-.04h-.04Zm.06-2.43h-.04l.03,.03s.01-.01,.01-.03Zm.07,.72s-.07-.03-.07-.03l-.04,.04s.08,.01,.11-.01Zm-.08,.24c.03,.06,.06,.06,.1,.01-.03-.01-.04-.03-.04-.03,0,0-.01,0-.06,.01Zm.01-1.41s.1,.03,.17,0c-.04-.06-.06-.1-.06-.1,0,0-.04,.04-.11,.1Zm0,.3s.06,.08,.08,.1c0,0,.03-.01,.07-.03-.04-.04-.1-.06-.16-.07Zm.07,1.36s.03-.04,.08-.1l-.13,.06c-.06,.03-.01,.11,.04,.04Zm0,1.54h0Zm.23-3.2c-.04,.06-.1,.13-.17,.11,0,.01-.01,.01-.06,.01,.04,.01,.06,.01,.06,.01v-.03s.06,.16,.13,.14c.03-.07,.01-.17,.04-.25Zm-.21,2.42l.04-.03h-.06s.01,.03,.01,.03Zm.08,.57l-.04-.04c-.08,0-.01,.07,.04,.04Zm.1,.51s-.11-.01-.14-.01l.04,.08s.03-.03,.1-.07Zm-.11-3.82s0,.03,.03,.03l.03-.03h-.06Zm0,.86h0Zm.11,2.76c-.03-.07-.04-.1-.07-.08l-.03,.03s-.01,.01-.01,.07c.04-.01,.07-.01,.11-.01Zm.23-1.37c-.1-.04-.17,.11-.24,.03-.04-.06-.07,.03-.07,.06,.07,.03,.25,0,.31-.08Zm-.31,.78c.04,.08,.14,0,.18,0v-.04h-.03s-.08,.04-.16,.04Zm.03-2.8v-.01h0Zm.04,.55h-.04c.03,.07,.06,.1,.08,.11,.03,0,.04-.03,.07-.1-.03,.06-.1,0-.11-.01Zm.06,.78h.01c-.01-.1-.06-.14-.11-.11,.07,.07,.1,.11,.1,.11Zm-.1,.2c.06,.04,.11,.04,.16,0-.04-.04-.07-.06-.07-.06,0,0-.03,.01-.08,.06Zm0,.17h.04s-.01-.03-.03-.03v.03Zm-.01,.21h0Zm.08,.41s-.06-.06-.07-.06c-.01,.01,0,.03,.03,.06v.04l.04-.04Zm-.04-.44h.04s-.04-.01-.04,0Zm.01,2.16h0Zm0-1.58h0Zm.07,.45h-.04l-.03,.03h.04l.03-.03Zm.07-.33c.01-.06-.08-.03-.11-.04,0,.03-.03,.1,.03,.09,.01-.01,.03-.01,.04-.01s.03-.01,.04-.03Zm-.11-3.31h.01v0Zm-.01,.17h0Zm0,.37v-.03h0v.03Zm.1,1.2c-.07,0-.06,.16,.01,.1,.03-.03,.03-.06-.01-.1Zm.27-.27c-.13,.01-.24,.04-.23,.04l-.08,.13c.1,.03,.23-.1,.28-.13,.01,0,.03-.01,.03-.04Zm-.3-.75h.04v-.04l-.04,.04Zm0,3.47h.03v-.04s-.03,.03-.03,.04Zm.03-3.69c.01,.07,.1,.09,.14,.09-.04-.06-.06-.09-.06-.09h-.08Zm.1,2.55s.03-.03,.08-.07c-.07-.03-.13-.03-.18,.01,.07,.04,.1,.06,.1,.06Zm-.08,1.56v.03h0v-.03Zm0-3.62c.01,.1,.14,.13,.14,.03,.01-.07-.1,0-.14-.03Zm.03,.23h0Zm-.03,.21s0,.04,.03,.04v-.04h-.03Zm0,.45s.06,.04,.08,.03l-.08-.03Zm.03-1.66s0,.03,.01,.04c.01,0,.03-.01,.03-.03h-.04Zm.04,1.98s-.01-.01-.04-.06c.06,.11,.13,.14,.23,.1,0-.04-.17-.04-.18-.04Zm-.03,3.04h-.01v0Zm.1-.2s-.01-.06-.01-.06h-.07s.07,.06,.08,.06Zm-.06-5.23h0Zm.04,.91s-.04,0-.04,.01c0,.06,.03,.09,.06,.14,0-.13,.01-.09-.01-.16Zm-.03-.37h0Zm0,2.25h.03v-.03s-.03,.01-.03,.03Zm.03,.61v-.03h-.03l.03,.03Zm-.03,.69h0Zm.03,2.66h0Zm.01-5.15v-.03h0v.03h0Zm-.01,4.88h0Zm.14-3.14s-.04,.08-.13,.25c.1-.08,.11-.13,.18-.07-.04-.13-.06-.18-.06-.18Zm-.04,2.12s-.03-.07-.03-.07c0,0-.01,.03-.06,.07,.04,.01,.07,.01,.08,0Zm-.07,6.88s0-.01-.01-.01h.01Zm0-12.46c.03,.1,.04,.14,.04,.14,0,0,.03-.04,.08-.11l-.13-.03Zm0,1.57s.06,.07,.08,.07c-.01-.04-.01-.07-.01-.07h-.07Zm.04,.62v-.03h-.01v.03Zm.01,.51s-.01,.01-.01,.04v-.03h.01Zm.03,2.35h-.04v.03h.04v-.03Zm-.03-1.85h.03v-.03l-.03,.03Zm.03,.79s-.03,.03-.03,.04l.04,.04s.04-.08-.01-.08Zm.01-1.6h0Zm0-.99h.03v-.04h-.03v.04Zm.07,5.12h-.04v.03h.01l.03-.03Zm-.03-3.69h.03s.03,0,.03,0c0,0,0-.01-.01-.03h-.01l-.03,.03Zm0,.47l.03,.04s.01-.04,.01-.06h-.04Zm.03,5.69h-.03l.03,.03v-.03Zm0-8.76h.03s.04-.08-.01-.08c-.01,.01-.01,.03-.01,.04v.04Zm0,3.72s.03,.06,.06,.08-.04,.04,0,.1c.03-.04,.04-.07,.04-.07,0,0-.01-.01-.03-.07,0-.03-.03-.04-.07-.04Zm0,2.14h.03s-.01-.01-.01-.01h-.01Zm.03-2.25h0Zm.07,.4s-.07,.01-.08,.06h.01s.04-.01,.07-.06Zm-.07,2.94v-.03h-.01v.03h.01Zm.04-1.4h-.04l.03,.03s.01-.03,.01-.03Zm-.01,1.8h0Zm0-5.04s.01,.04,.01,.04h.07s-.06-.06-.08-.04Zm.01-.74h.03s.04-.07,0-.07l-.03,.03v.04Zm.04,2.99h.03v-.03h-.03v.03Zm.74,7v.04h0s.01-.04,0-.04Zm.08,.38s-.03,.06-.01,.06h.01v-.06Zm.06-.33s-.01-.06-.03-.06v.07h.03Zm.27-.01s-.01-.03-.04-.06c-.03,0-.03,.01-.01,.04,0,.03,.03,.03,.04,.04,.01,.01,.01,0,.01-.03Zm.04-.06v.06h0s.01-.04,0-.06Zm.16,.06h-.03v.06s.01-.03,.03-.06Zm.06,0h-.01v.01h.01Zm.16-.06s-.04,.08-.01,.07c.04,.01,.04-.07,.01-.07Zm.1,.06s-.03-.04-.04-.03c.01,.01,.03,.03,.04,.03Zm.03-.01s.03,.07,.04,.03c.01-.03-.01-.03-.04-.03Zm.11,.01s0-.03-.01-.04c0,.01-.01,.07,0,.06h.01Zm.14,.03c.01-.11-.16-.1-.1-.03,.01,.01,.06,.03,.1,.03Zm.21-.06s-.11-.07-.16-.01c-.04-.07-.04,.07-.01,.07,.04-.03,.07,.01,.08-.06h.03q.01,.06,.03,.04s.01-.04,.03-.04Zm.06,0h-.01s.01,.07,0,.13h.01s.01-.11,0-.13Zm.08-.01s-.03-.06-.03-.01c-.01,.01-.03,.06-.01,.08,.03,0,.07,0,.07-.01,.01-.01,.01-.03,.03-.04,.03-.04-.03-.06-.06-.01Zm.11,.11s0,.06,.03,.06c.06-.13-.1-.33-.03-.06Zm.08-.1l-.03,.04c.01,.13,.08-.03,.03-.04Zm0,.13s0,.06,.03,.04c.03-.03,.01-.08-.03-.04Zm.17-.07s.01,.11-.04,.07c-.03-.01,.03-.1,.01-.13-.01-.07-.13,.2-.01,.17,.01,.01,.07,.04,.06,0,0-.03,.03-.1,.01-.13-.03-.03-.03-.01-.03,.01Zm.07,.16c.07,0,.03-.06-.01-.07,0,.03-.01,.06,.01,.07Z"/><path class="cls-8" d="M69.14,92.31v-.02h-.18c-.05,0-.08,.07-.14,.04-.02-.03-.06,0-.06-.04-.11,.04-1.32-.09-1.23,.08,.23,.17,.65-.06,.72,.14,.06-.15,.27-.05,.39-.1,.11,.06,.36-.07,.35,.12l.04-.02c.03-.06,.06-.08,.1-.06,.09,.01,.19-.06,.23,.08,0-.12,.14-.12,.18,0,.04-.11,.18-.08,.29-.04,.03-.04,.07-.04,.14,0,.04,0,.12-.03,.16,.02h.02c.05-.05,.11-.04,.08,.04,.03,0,.05-.09,.08,0,.02-.03,.12-.09,.12-.04,.03,.06-.04,0-.04,.04,.05,.12,.11-.12,.2-.02,.02,.1,.06,0,.1-.02,.03,.02,0,.26,.08,.18,.04,0,.02-.09-.02-.06-.05,.06,0-.2,.06-.1,.01,0,.03,.03,.04,.1,.04-.23,.71-.04,.72,.13-.04,.17-.31,.03-.41,.03-.11-.02-.26,0-.31-.1-.07,.07-.15,.06-.22,0-.02,.01,0,.05-.03,.05,0-.02,0-.05,.02-.05-.03-.03-.08,0-.1,.03-.08,0-.23,.04-.25-.04-.01-.01-.03-.02-.06-.02-.04,.18-.09-.06-.1-.1l-.02,.02c0,.12-.04,.15-.12,.1-.05,0-.1,.01-.1-.08-.03,.12-.06,.1-.18,.1-.03-.02,0-.04,.02-.04,.03-.07,.03-.1,0-.12-.02,.01-.03,.09-.06,.06h-.02c-.04,.09-.09,.12-.16,.08-.07,0-.16,.05-.14-.08l-.02-.02-.02,.02c0,.07-.01,.1-.04,.1-.03-.02,0-.07-.04-.1,.01-.05,0-.08-.02-.08-.07,0,.07,.19-.06,.18-.8-.07-1.54,.13-2.33,.04-.94-.07-1.96,.2-2.88,.06,0-.07-.08-.29,.06-.27,.1,.05,.2-.07,.1-.12-.1-.08-.39-.16-.2-.31-.02-.03-.05-.03-.02-.06-.05,0-.08,0-.1-.02,.02-.03,.04,0,.04-.04,.03,0,.05-.01,.02-.04-.03-.04-.11,.01-.16-.06-.02-.01-.08-.05-.08,0,.09,.07-.01,.14-.04,.22,.12,.02,.12,.19,.02,.22,.08,.06,.01,.11,0,.16,.08,.09,.02,.19-.04,.27,.01,.03,.03,.04,.06,.04,0,.03,.02,.03,.04,.06-.02,0-.12,.05-.14,.02-.05-.06-.09,.08-.04,.08,.17,.05,.03,.14-.02,.22,0-.02,.02-.16-.06-.1-.13,0-.26-.01-.35-.1-.04,0-.06-.02-.08-.06,.03-.06,.25-.07,.12-.12-.05,0-.08-.03-.08-.08-.02-.1-.07,.04-.06,.1-.03,0-.07,.03-.1,0,.03-.03,.06-.03,.06-.08-.03-.03-.12,.07-.16,.06,.06,.06,.05,.08,0,.16,0-.01-.01,0-.04,.02-.06,0-.09-.17-.18-.06v-.02c-.05-.05-.15,.14-.2,.12-.19,.06-.42-.03-.59-.02-.11,.11-.17-.13-.25,.02-.08,.11-.17,.06-.14-.16-.07,0-.04,.25-.16,.14-.03,0-.04,.01-.04,.04-.09,.11-.11-.05-.19-.02-.17,.06-.15-.19-.03-.22-.07-.03-.08-.07-.04-.12v-.02c0-2.14,.18-4.38,.16-6.51v-.04c-.06-.13-.03-.27,0-.43-.03-.02-.01-.11-.04-.14,.03-.67-.01-1.49,.04-2.07-.05-.59-.09-1.43-.04-1.88,0-.08-.06-.05-.06-.12-.04-.07,.03-.24,0-.27,0-.62-.15-1.85-.04-2.27,.1-.02,.12-.24,.23-.25,.09-.03,.13-.22,.18-.08,0,.07,.04,.07,.08,.04,.11-.04,.26,0,.35,.12,.03,0,.04,0,.04-.02,.1-.09,.21,.16,.33,.18h.02c.05-.06,.29-.17,.31-.06,.06,.12,.16-.02,.23,0,.09,.09,.2-.08,.25-.18-.03-.17,.14-.19,.18-.02,0,.05,.04,.08,.12,.08,.11-.04,.09,.15,.16,.19,.08,.04,.13-.09,.18,.07,.03,.74,.03,1.98,.05,2.76,.9-.02,1.88,.13,2.76,.05,.92,.05,1.81,.1,2.7,.11,.38,.06,2.72-.41,2.25,.31,.01,.09,.24,0,.3,.04,.03,.06-.07,.12-.01,.2,.03,.07,.04,.11,.04,.16-.04,.03,.06,.03,.05,.05-.08,.08,0,.18-.05,.26,0,.02,.05,.02,.07,.02-.07,.11-.2,.33-.3,.29,0,.22,.37-.13,.3,0-.03,.14-.02,.36-.05,.5,.02,.02,.02,.07,.01,.13,0,.07,.01,.11,.06,.13,0,.68-.66,.78-1.16,.78-.13-.11-.21,.19-.37-.02h-.05c-.03,.12-.14,.03-.2,0h-.02c-.07,.2-.21-.09-.3,.06l-.02-.02c0-.14-.04-.07-.1-.02-.03-.07-.05-.01-.05,.02-.02,.01-.03,.02-.05,.02-.03-.04-.07-.05-.12-.02-.03-.02-.03-.04,0-.05,.07-.04-.03-.08-.05-.02-.2,.06-.44,.13-.64,.08-.02-.05-.05-.05-.1,0,0,.02-.02,.04-.02,.02-.12,0-.25,.02-.37,0-.06,0-.04-.07-.06-.13-.06-.09-.09,.04-.06,.09h-.05c-.07,.12-.25,0-.32,.08-.07-.02-.08-.16-.15-.02-.04-.05-.09,.04-.15,.02-.13-.05-.49,.04-.67-.05,0-.02-.05-.02-.05,0-.16,.05-.4,0-.57-.02-.1,.06-.18,.05-.25-.05-.02,.07-.07,.07-.12,.06-.03,.05-.08,0-.07-.03-.02,0-.05-.04-.05-.02-.11,.11-.3-.08-.42,.03-.05,0-.09-.03-.15,0-.11-.01-.19-.02-.3,.02-.05,0-.15-.09-.2,0-.06-.09-.21-.02-.27-.06-.02,0-.04,.05-.05,.06-.07-.02,0-.12,0-.16-.07,.09-.26,.27-.27,.03-.1,.07-.14,.11-.2,.09,.04,1.72,.01,3.46,0,5.09,.87,0,1.6-.14,2.31-.04,.39-.16,.86,.02,1.29-.04,.02-.03,.04,0,.04,.02,.04,.04,.05,0,.08-.02,.07,.03,.2,0,.27,0l.02,.02c.08,0,.08,.02,.06,.1,.1-.17,.34-.15,.41,.04,.03-.08,.06-.23,.18-.12,.03,.03,.04,.03,.04,0l.04-.02c.02,.06,.13,0,.16,0,0,.03,.01,.03,.04,0,.06,0,.08,.03,.06,.1,.01,0,.02,0,.02-.02l.08-.06s-.05-.07-.04-.12c.14-.85-.17-1.63-.1-2.59,.05-.02,.27-.08,.27,.02,.04,.32,.27-.28,.45-.06,.02-.03,.02-.1,.04-.12l.06,.04s.06,0,.04-.02c-.04-.06,.11-.11,.1-.16,.1-.09,.33,0,.45-.06,.18-.08,.43,0,.59-.08,.17,.06,.05,.24,.14,.33,.03-.04,.07-.05,.12-.04,.05-.07-.07-.28,.06-.29,.19,.02,.01,.29,.16,.37,.1-.11-.1-.46,.12-.47,.22-.05,.16,.07,.27,.2,.05,.53,.21,1.51,.12,2,.09,.02,.06,.07,.06,.12,.02,.1,.09,.26,.04,.35-.02,.11-.02,.24,0,.35-.02,.02-.04,.04-.02,.06,.05,.03,.03,.14,.02,.2,0,.12,.03,.19-.02,.33,.03,.02,.04,.04,0,.08h-.02v.02h.02l.02,.02c-.05,.06,.08,.21-.04,.2v.02c.11,.06,.04,.06,0,.12,.03,0,.05-.03,.08,0,0,.03-.04,.05-.12,.06v.02c.08,.03,.12,.08,.12,.16-.09,.05,.01,.05-.02,.1-.03,0-.04,0-.04-.02-.01,0-.15,0-.08,.02,0,.02-.04,.02-.06,.02v.04s.12,0,.16-.02c.07,.03-.02,.08,.03,.15-.04,.02-.12,0-.17,.03v.04s.15,.04,.14,.06c-.01,.01-.05,.01-.1,0l-.06,.02v.02h.16s-.09,.04-.16,.04c.03,.07,.14-.02,.18,.04l-.04,.02s-.07-.01-.12,0l-.02,.04s.06,0,.08-.02l.06,.02-.02,.02s-.08,0-.12,.04h.16c-.02,.07-.12,.04-.18,.04-.02,.02-.01,.07-.03,.08,.07,0,.14-.04,.21-.06-.02,.03-.09,.03-.12,.06,.15-.02,.07,.07,.1,.16,.01,.03-.12,0-.12,.04,.24,.01,.15,.43,.18,.51,.03,.09-.1,.07-.22,.08-.12,.06-.35-.03-.45-.04-.29,.01-.57-.07-.84-.04-.07-.02-.33,.03-.29-.1-.01,.06-.06,.08-.12,.08-.19,.05-.46-.01-.66,.02l-.04-.02Zm-8.08-10.39l-.02-.02h-.02l.02,.02h.02Zm.02,.98h.02v-.02l-.02,.02Zm.04,9.45h-.02v.02h.02v-.02Zm0-9.68l.02,.02v-.04s0,.02-.02,.02Zm.02,3.46l-.02-.02v.02h.02Zm.02-.39h-.02l.02,.02v-.02Zm.47-.68h-.02v.02h.02v-.02Zm.27-.45l-.08,.02s.05,0,.08-.02Zm.23-1.55l.02-.04h-.02v.04Zm0,.23l.02,.02v-.04l-.02,.02Zm.06,1.6h-.04s0,.02,.02,.02,.02,0,.02-.02Zm.02-2.35s0-.02-.02-.02v.02h.02Zm.04,.31l-.02-.04v.04h.02Zm.02-.43l.04-.02s0,.05,.02,.06c0-.02-.04-.13-.05-.09,0,.02,0,.04,0,.05Zm.12,.12c-.05-.03-.08-.03-.1-.02v.04s.07,0,.1-.02Zm-.06,.82l.02-.06-.02-.02s-.04,.02-.04,.06l.04,.02Zm-.02-.57v.02s.03-.02,0-.02Zm.04,7.16l-.02-.02v.02l.02,.02v-.02Zm.04-7.3c-.09,.02,0,.14,.02,.02,0-.03,0-.03-.02-.02Zm-.02,1.15h-.02v.02l.02-.02Zm0-2.6l.02-.02h-.02v.02Zm0,.84l.02,.02v-.04l-.02,.02Zm.06,7.81s-.05,.02-.06,.06l.03-.03,.03-.03Zm-.02-6.98s.05-.05,.02-.08c-.03,.03-.04,.05-.04,.06l.02,.02Zm0-.57s.05,.05,.06,.04c-.03-.04-.05-.05-.06-.04Zm0,.74s.06,.01,.08,0c-.04-.01-.07-.01-.08,0Zm.04,9.12l-.02,.02,.02,.02v-.04Zm0-10.07s.11,.12,.16,.04c-.05,0-.1-.04-.14-.1,0-.03-.02,0-.02,.02v.04Zm.06,9.53v-.02s-.05-.01-.06,0l.06,.02Zm.02-8.94c-.05,0-.08,.1-.04,.08,.03,0,.04-.03,.04-.08Zm-.06-.78c.07,.01,.13-.04,.2-.04-.04-.03-.08-.03-.11-.02-.03,.01-.06,.03-.09,.06Zm.02,.68s0-.03-.02-.02v.04l.02-.02Zm-.02,6.93h.06s-.03-.03-.06,0Zm.02-8.45s.04,.03,.08,.02c-.01-.03-.04-.03-.08-.02Zm.04,11.01s-.04,0-.04,.02l.04-.02Zm.04-10.78l-.04-.04-.02,.02s0,.02,0,.03c.01,.01,.05,.02,.05,0Zm-.04-.74l.02,.02v-.04l-.02,.02Zm0,1.04v.02l.02-.02v-.02l-.02,.02Zm.02,9.49h-.02v.02l.02-.02Zm.02-8.69v-.04s-.02,.02-.02,.04h.02Zm-.02,.43v.04s.02-.04,.02-.06l-.02,.02Zm0,5.56s.02,0,.03,0l.03-.03s-.05,.01-.06,.04Zm.02-6.1c.05,.07,.1,.08,.14,.04-.07-.04-.11-.05-.14-.04Zm.02,7.28l-.02,.02h.02v-.02Zm0,2.41s0,.08,0,.04v-.04Zm.02-10.56h.02v-.02l-.02,.02Zm.02,1.27h-.02v.02l.02-.02Zm-.02,6.1v.02l.02-.02h-.02Zm0,.59s.04,.02,.04-.02c-.01,0-.03,0-.04,.02Zm0,1.64s.06-.01,.06-.04c-.04,0-.06,.01-.06,.04Zm.16,1.55s-.12,0-.16,.06c.01-.01,.04-.02,.08-.02s.06-.01,.08-.04Zm-.1-11.05h-.04s.01,.04,.04,.04v-.04Zm-.02,.98l-.02-.02v.04s.02,0,.02-.02Zm-.02,3.33v.02h.04l-.02-.02h-.02Zm.02,4.17s.02-.02,.02-.04l-.04,.02,.02,.02Zm-.02,.67v.02h.02l-.02-.02Zm0,1.31c.06,.02,.06-.04,.06-.08-.03,0-.05,.03-.06,.08Zm.02,.8s-.02,0-.02,.02h.02v-.02Zm.02-3.07h-.02v.02s.02,0,.02-.02Zm-.02,1.45c.06,.04,.09,.01,.08-.04-.04,0-.07,.01-.08,.04Zm.02,1.02s.02,0,.02-.02h-.02v.02Zm.04-1.92v-.02l-.02,.02h.02Zm.04,1.02s-.03,.02-.06,.06c.04,0,.06-.02,.06-.06Zm-.06,1.15h.02v-.02s-.02,0-.02,.02Zm.02-4.09l.02,.02,.04-.02s-.01-.02-.04-.02l-.02,.02Zm.02-.39l.02-.02-.02-.02v.04Zm0,2.07v.04s.04,0,.08-.04c-.03,0-.05-.03-.08,0Zm0,1.43l.02,.02v-.04s0,.02-.02,.02Zm.02,.22s.07,.03,.1,0h-.1Zm0,.16s-.01,.08,.02,.08c.06,0,.05-.09-.02-.08Zm.04,.25l-.02,.02s0,.03,.02,.02v-.04Zm0-4.34l.02-.02s-.02,0-.02-.02v.04Zm.04,4.26l-.02,.02v.02h.02v-.04Zm0-6.22l.02,.02,.02-.02-.04-.02v.02Zm0,2.82l.04,.02h.02l-.02-.02h-.04Zm.02,4.01s0,.05,.02,.02h.05c.16-.08-.11-.13-.07-.02Zm0-.43h.04c.07,.05,.04-.1-.04,0Zm.04,.22s.04-.02,.04-.06c0-.01,0-.03-.02-.04-.04,0-.05,.12-.02,.1Zm0-2.48h-.02v.02l.02-.02Zm-.02,.59c.07-.03,.1-.03,.12-.02,0,.03,.02,0,.02-.02l-.02-.02s-.1-.01-.12,.06Zm.1,1.25s-.03-.04-.04-.06l-.02,.02,.04,.02v.02h.02Zm-.02-1.74l.02,.02v-.04l-.02,.02Zm0,1.9v.06s.02-.01,.02-.04l-.02-.02Zm.04,.49h-.02l.02,.02v-.02Zm.02-.06s.03-.06,0-.06l-.02,.02,.02,.04Zm.02,.31c.15-.03,.01-.18-.02-.04-.01,.03,0,.04,.02,.04Zm-.02-.49v.04l.02-.02s0-.02-.02-.02Zm.14,.53s-.05-.06-.08,0c-.03,0-.03,.01,0,.04,.01,.01,.04,0,.08-.04Zm.06-.49s.06-.01,.06-.04c-.03-.02-.09,.1-.14,.08,.03,.05,.05,.04,.08-.04Zm-.06,.72h-.02l.02,.04v-.04Zm.14,.04s-.08-.03-.06,.04c.03,0,.05-.01,.06-.04Zm0-.57l-.06-.02s.03,.05,.06,.02Zm-.04-2.93h.02l-.02-.02v.02Zm.04,3.31l-.02-.02v.02h.02Zm.14-.78h-.02l.02,.02v-.02Zm.18-9h-.02l.02,.02v-.02Zm0,9.29l.02-.02h-.02v.02Zm.04-10.09s.04,.11,.04,.17c.06,0,.11,0,.16-.02-.03,0-.08,0-.07-.05,.31,0,.84,.08,1.14,.03,.09,.07,.05-.04,.1-.05,.04,0,.03,.03,0,.05-.01,.04,.04,.04,.05,.02,0-.04,0-.07,.07-.07,.04,.02-.02,.04,.02,.06,.13-.02,.27-.11,.37,.05-.02-.06,0-.09,.06-.09,.06,0,.09,0,.09-.02-.56-.11-1.42-.13-2.01-.11,0,0-.02,.02-.02,.02Zm.29,8.14c-.1-.03-.18-.03-.23-.02h-.02v.08c.06,0,.21,.03,.25-.06Zm-.06,.35c-.06-.03-.08-.06-.06-.14h-.14v.16c.08,0,.14,0,.2-.02Zm-.16-7.72s-.02,0-.03,0v.03s.02-.02,.03-.03Zm.91,.44c.11-.08-.81-.08-.94-.14v.08s.07,0,.1,.01c.18,.03,.46,.05,.84,.05Zm-.93,.36v.03s.02-.03,0-.03Zm.06,.71s0,.03-.02,.03c-.01,0-.02,0-.02,0v.05h.02c.27,.03-.09-.36,.02-.09Zm.15,.05s.05,.03,.07,.02c.08-.04-.1-.07-.07-.02Zm.12-.1l-.02-.03s-.07,.08-.02,.08c.03,0,.05-.02,.05-.05Zm.07-.03s-.08,.13-.02,.15c.02,0,.11,0,.07-.05l.02-.06c.07-.05-.02-.11-.07-.03Zm.32-.03s-.05,0-.07,.02c-.07-.06-.16,0-.05,.05,0,.03,.1,.01,.12,.02,.04-.02,.03-.06,0-.08Zm.12,.03h-.02s-.02,.09-.02,.11h.02s0-.04,.02-.06c.02-.02,.02-.03,0-.06Zm.07,0s.07,.09,.1,.02l.05-.02c.02,.07,.11,.02,.15,.05,.2-.12-.23-.07-.3-.05Zm.4,.05c.08,0,.14,0,.17-.02,.09-.08-.2-.07-.17,.02Zm.3-.08s-.05,.04-.05,.05l.02,.02s.02-.01,.02-.03v-.03Zm.17,.03s-.11-.01-.07,.03c0,.01,0,.02,.02,.02,.03,0,.05-.02,.05-.05Zm.02,8.03c-.38,.13,1.76,.03,1.84,.06,.32-.27-1.6-.03-1.84-.06Zm.1-8.05s-.04,0-.07,.03c.03,0,.06-.01,.07-.03Zm-.02,5.62h.02s0-.02-.02-.02v.02Zm.04,1.33l.02,.02,.02-.02h-.04Zm.11-6.91c.07,0,.07-.07,0-.07-.07,0-.07,.07,0,.07Zm.15,6.73h.02s.01-.02-.02-.02v.02Zm.13-6.71l.02-.03-.02-.02v.05Zm.12-.05s0,.05,.02,.05l.02-.03-.02-.02h-.02Zm.25-.02s0,.02,.02,.02h.02l-.02-.05-.02,.03Zm.03,5.59h.02v-.02l-.02,.02Zm.07-5.57c-.01,.07,.11,0,.12-.02,.06-.07-.13,.01-.12,.02Zm.01,5.49h.02v-.02l-.02,.02Zm.1,.86h.02v-.02s-.02,0-.02,.02Zm.22,.33l.02,.02s.03-.02,0-.02v-.02l-.02,.02Zm.18-1.04l.02-.02-.02-.02v.04Zm.02,1.06h.02v-.02l-.02,.02Zm0-6.7l.05,.02v-.06s-.05,.02-.05,.05Zm.02,6.57s0,.04,.02,.04l-.02-.04Zm.03-6.26v.03l.02,.02s.04-.06-.02-.05Zm0,5.52l.02,.02v-.04l-.02,.02Zm.1,.39s.02,0,.02-.02h-.02v.02Zm0,.27h.02v-.02l-.02,.02Zm.04,.35s-.03,.05-.02,.06c.04,0,.05-.02,.02-.06Zm.02-.47s.04-.03,.04-.06l-.04,.02v.04Zm.03-6.37l.02-.02-.02-.03s-.04,.05,0,.05Zm0,6.12s.02-.11,0-.06c-.04,0-.04,.02,0,.06Zm0-.51l.02-.02h-.02v.02Zm.04,1.41s0,.02,.02,.02v-.04l-.02,.02Zm.06-1.17l.02,.02v-.04l-.02,.02Zm.04,.22s-.02-.01-.02-.04l-.02,.04,.02,.02,.02-.02Zm0,.1h-.02s0,.02,.02,.02v-.02Zm.06-.61s-.02,0-.02,.02h.02v-.02Zm.06,1.1s-.01,.07,0,.08v-.08Zm.04-.96s-.03,.05,0,.08c.01-.04,.01-.07,0-.08Zm.04,1.51l-.02-.02v.04l.02-.02Zm.04-.35h-.02v.02l.02-.02Zm.06-.98s0-.07-.02-.08l.02,.08Zm.1,1s0,.03,0,.04c0,.01,0,.03,0,.06,.01-.04,.01-.07,0-.1Zm.02-.84l-.02,.04h.02v-.04Zm.02-.33l-.02,.04,.02,.02v-.06Zm.06,.22h.02v-.02l-.02,.02Zm.04,1.02h-.02v.02l.02-.02Zm.04,.08h-.02s-.01,.05,0,.12l.02-.12Zm0-.63s0-.07-.02-.1c0,.05,0,.09,.02,.1Zm0,1.47h-.02v.02h.02v-.02Zm.04-1l-.02,.02,.02,.02v-.04Zm.04-.78s-.02,.08,.02,.14c0-.02,0-.12-.02-.14Zm.02,.61l-.02-.02s0,.04,.02,.04v-.02Zm0,.41h-.02l.02,.02v-.02Zm.1-.08s-.03-.06-.06-.06c.01,.03,.03,.05,.06,.06Zm-.02-1.06h.02v-.02s-.02,0-.02,.02Zm.08,.17s-.01-.05-.04-.09c0,.08,0,.13-.02,.16,.04-.03,.06-.05,.06-.07Zm-.04,.93l-.02,.02,.02,.02v-.04Zm.06-.45l.02,.02v-.02h-.02Zm.04,.25c0-.05,0-.1-.02-.14-.02,.06-.02,.1,.02,.14Zm0,.25s-.02,0-.02,.02l.02,.02v-.04Zm.04-1.57s-.04,.05-.04,.06v.02s.04-.04,.04-.08Zm0,.27h-.02v.02l.02-.02Zm.04,.39l.02,.02s0-.04-.02-.06v.04Zm.02,.86s0,.07,.02,.08c.01-.03,0-.05-.02-.08Zm.12-1.43c0-.05-.01-.08-.04-.08-.03-.03-.05-.02-.06,.02,.03,.03,.03-.01,.06,.02,0,.03,.01,.04,.04,.04Zm-.08,.7v-.04l-.02,.02,.02,.02Zm.02-.67l-.02,.02c0,.09,.07,0,.02-.02Zm.02,.72s0,.07-.04,.1c.03-.03,.04-.06,.04-.1Zm0,.63l-.02-.04v.02s-.01,.03,0,.04l.02-.02Zm0,.2h-.02v.02l.02-.02Zm0-1.15s.02-.06,.02-.08l-.02,.02v.06Zm.04,1.57h-.02v.02s.02,0,.02-.02Zm.06-1.68h-.02c-.04,.1-.05,.17-.02,.2,0-.04,.03-.12,.04-.2Zm0,.39l-.02-.02s-.02,0-.02,.02l.02,.02,.02-.02Zm0,.61l-.02-.02-.02,.02,.02,.02s.02,0,.02-.02Zm0,.45s0-.03-.02-.02v.04l.02-.02Zm.06-.51h-.02s.02,0,.02,.02v-.02Zm0-1.1c.09-.08,.1-.14,.04-.18,.01,.04,0,.08,0,.11s-.03,.06-.03,.07Zm.04,.12s-.02,.08-.02,.12c.03,.02,.06-.11,.02-.12Zm0,1.19l-.02-.02v.02h.02Zm.04-.9l-.02,.02,.02,.02v-.04Zm.02,1.96s.02,.02,.04,.02l-.02-.04-.02,.02Zm0-2.33s0-.02,.02-.02l-.02-.02v.04Zm0,.23s0-.03,.02-.04h-.02v.04Zm.04,.43l-.02-.12c-.03,.07-.02,.1,.02,.12Zm0,.61h-.02l.02,.02v-.02Zm.04-.35l-.02-.02v.04l.02-.02Zm.04-.65l-.04-.08s-.01,.13,.04,.08Zm-.02,.92s0-.02-.02-.02v.04l.02-.02Zm.04-1.27c-.03,.05-.03,.11-.02,.18,.01-.04,.02-.1,.02-.18Zm-.02-.14v.04s.03-.04,0-.04Zm.08,1.45l-.02,.02h.02v-.02Zm.04,1.23l.02-.04-.02-.02-.02,.02s-.01,.04,.02,.04Zm0-1.15l-.02-.02v.06s.02-.03,.02-.04Zm.04,.33h-.02v.02l.02-.02Zm.08-2.21c.2,.54,.07-1.25,0-1.17-.11,.14,.02,.37-.02,.53,.02,.17,0,.48,.02,.65Zm0,.16h.02l-.02-.02v.02Zm.02,.1s.08-.06,.12-.06c-.02-.09-.15-.01-.12,.06Zm.02,1.8l-.02,.02h.02v-.02Zm-.02,.92s.06,0,.06-.04l-.02-.02s-.02,0-.02,.02,0,.03-.02,.04Zm.02-2.62v.04s.02,0,.02-.02l-.02-.02Zm.06,.57l-.06,.06s0,.05,.02,.06v-.02s.02-.03,.02-.05,0-.04,.02-.05Zm0-.1s-.02,0-.02,.02l.02,.02v-.04Zm.02-.31v-.04l-.02,.02,.02,.02Zm.02,.98l-.02-.02v.04l.02-.02Zm.02-.27v-.02l-.02,.02v.02l.02-.02Zm-.02,.47s0-.09,.04-.12h-.04v.12Zm.04-.63s.01-.07,0-.1c-.03,.03-.03,.06,0,.1Zm.02,.63c-.05,.04-.02,.12-.02,.16,0-.03,0-.1,.02-.12v-.04Zm.23,1.31h.02v-.02l-.02,.02Zm.18-1h.02v-.02l-.02,.02Zm.08-.04l.02,.02,.02-.02h-.04Zm.16,.08h.08c.06,.07,.17-.04,.23,.02,0-.01,0-.02-.02-.02-.01-.03-.07-.04-.18-.04,.02-.03,.12,0,.14-.04-.18,.02-.16-.19-.1-.31h-.04c-.04,.07-.05,.16-.04,.29l-.04-.02s-.02,.09-.04,.12Zm.1,.06h-.02l.02,.02v-.02Zm0,.86s0,.02,.02,.02v-.02h-.02Zm.06-1.33s0-.02,.02-.02v-.02l-.02,.02v.02Zm.04-.94l.02-.02h-.02v.02Zm0,.18h.02l-.02-.02v.02Zm.02-.86l.02,.02,.02-.02h-.04Zm.04-1.06l.02,.02,.02-.02h-.04Zm.08,1s.07,.01,.08,0c-.04-.01-.07-.01-.08,0Zm.08,2.09l-.02,.02h.02v-.02Zm.02-.18h.04l-.02-.02-.02,.02Zm.02-.47l.02,.02v-.02h-.02Zm0,.08l.02,.04v-.02l-.02-.02Zm0,.53s.05,.03,.1,0c-.01,0-.03,0-.04,0-.01,0-.03,0-.06,0Zm.04-1.37h.02s0-.03-.02-.02v.02Zm.08,1.41s-.07-.01-.08,0c.03,.03,.05,.03,.08,0Zm-.04-.61s.02-.01,.02-.04h-.02v.04Zm.02-1.72l.02,.02,.02-.02h-.04Zm0,.43l.08-.02s-.07,0-.08,.02Zm0,.14l.02,.02h.02l-.02-.02h-.02Zm.08,1.51s-.04-.03-.04,0h.04Zm.1,.18h-.14c.05,.03,.1,.03,.14,0Zm-.12,1.1v-.06s0,.04,0,.06Zm.04-3.21s.05,0,.06-.02c-.04,0-.06,0-.06,.02Zm.12,2.17s-.07-.03-.12,0c.03,0,.07,0,.12,0Zm-.02-.14h.02v-.02s-.02,0-.02,.02Zm.02,.14s.08-.01,.1-.04c-.06,0-.1,.01-.1,.04Zm.02-2.07l.02-.02h-.02v.02Zm0-5.44l.02,.02c.13,.02,.34-.03,.47-.05,.03,0,.06-.02,.07-.05-.09,0-.46,.07-.54,.03-.02,.01-.02,.03-.02,.05Zm.09,7.55s-.03-.01-.04,0h.04Zm.02-2.5l.02-.02h-.02v.02Zm.04,.39l-.02,.02h.04l-.02-.02Zm.1-.02l.04,.02v-.02h-.04Zm.37-6.17s.03-.08,0-.1c-.02,0-.02,.02-.02,.05-.05,.04-.08,.04-.1,0-.23-.19-.4,.23,.12,.05Zm-.25,6.21h.06s-.02-.03-.06,0Zm.08,.08l-.02-.02v.02h.02Zm.16,.1s0,.02,.02,.02v-.02h-.02Zm.02-7.11s.02,.04,.07,.03v-.02s-.04-.02-.07-.02Zm0,6.84h.02v-.02l-.02,.02Zm0,.18h.02l-.02-.02v.02Zm.08,.18l-.08,.02s.07,0,.08-.02Zm.1,1.82h-.06s-.03,.02-.06,.02c.04,.01,.09,0,.16-.01,0,0-.02,0-.04,0Zm-.1-8.31s.02,0,.02-.02v-.03s-.03,.03-.02,.05Zm0,6.41s.07,.01,.08,0h-.08Zm.12-.33h.02l-.02-.02v.02Zm.06-.39l.02,.02v-.02h-.02Zm.02,2.7h.06l-.02-.02s-.04,0-.04,.02Zm.04-.86c.05,.01,.09,.01,.12,0h-.12Zm.02-1.78l.02,.02v-.02h-.02Zm0,2.05l.02,.02s.06,0,.06-.02h-.08Z"/><path class="cls-8" d="M89.94,90.02v.02c.08,.03,.12,.08,.12,.17-.09,.06,.01,.05-.02,.1-.03,0-.04,0-.04-.02-.01,0-.15,0-.08,.02,0,.02-.04,.02-.06,.02v.04s.12,0,.16-.02c.07,.03-.02,.09,.03,.16-.04,.02-.12,0-.17,.03v.04s.15,.04,.14,.06c-.01,.01-.05,.01-.1,0l-.06,.02v.02h.16s-.09,.05-.16,.04c.03,.08,.14-.02,.18,.04l-.04,.02s-.07-.01-.12,0l-.02,.04s.06,0,.08-.02l.06,.02-.02,.02s-.08,0-.12,.04h.16c-.01,.07-.12,.05-.18,.04-.02,.02-.01,.07-.03,.09,.07,0,.14-.04,.21-.07-.02,.03-.09,.03-.12,.06,.15-.02,.07,.08,.1,.17,.01,.03-.12,0-.12,.04,.24,.02,.14,.46,.18,.54,.03,.09-.09,.08-.22,.08-.12,.06-.35-.03-.45-.04-.29,.01-.57-.07-.84-.04-.07-.02-.33,.03-.29-.1-.01,.07-.06,.09-.12,.08-.19,.05-.46-.02-.67,.02l-.04-.02v-.02h-.18c-.05,0-.08,.08-.14,.04-.02-.03-.06,0-.06-.04-.11,.04-1.33-.1-1.23,.08,.22,.18,.65-.06,.72,.15,.06-.16,.27-.06,.39-.1,.12,.06,.37-.07,.35,.12l.04-.02c.03-.07,.06-.09,.1-.06,.09,.01,.19-.07,.23,.08,0-.13,.14-.13,.18,0,.04-.12,.18-.08,.29-.04,.03-.04,.07-.04,.14,0,.04,0,.12-.03,.16,.02h.02c.05-.06,.11-.04,.08,.04,.03,0,.05-.09,.08,0,.02-.04,.12-.09,.12-.04,.03,.06-.04,0-.04,.04,.05,.13,.11-.12,.2-.02,.02,.1,.06,0,.1-.02,.03,.02,0,.27,.08,.19,.04,0,.02-.1-.02-.06-.05,.07,0-.21,.06-.1,.01,0,.03,.03,.04,.1,.04-.25,.72-.04,.72,.14-.04,.18-.3,.03-.41,.03-.11-.03-.26,0-.31-.1-.07,.07-.15,.07-.22,0-.02,.02,0,.05-.03,.05,0-.02,0-.05,.02-.06-.03-.04-.08,0-.1,.04-.08,0-.24,.05-.25-.04-.01-.01-.03-.02-.06-.02-.04,.2-.09-.07-.1-.1l-.02,.02c0,.12-.04,.16-.12,.1-.05,0-.1,.01-.1-.08-.03,.12-.06,.11-.18,.1-.03-.03,0-.04,.02-.04,.03-.07,.03-.11,0-.12-.02,.01-.03,.09-.06,.06h-.02c-.04,.1-.09,.12-.16,.08-.08,0-.16,.05-.14-.08l-.02-.02-.02,.02c0,.07-.01,.1-.04,.1-.03-.03,0-.08-.04-.1,.03-.13-.08-.1-.02,.04,.02,.11-.13,.03-.21,.05-.76-.04-1.44,.14-2.18,.05-.94-.08-1.97,.21-2.88,.06,0-.07-.08-.3,.06-.29,.11,.05,.2-.07,.1-.12-.11-.08-.39-.17-.2-.33-.02-.03-.05-.03-.02-.06-.05,0-.08,0-.1-.02,.02-.03,.04,0,.04-.04,.03,0,.05-.02,.02-.04-.03-.05-.11,.01-.16-.06-.02-.01-.08-.06-.08,0,.09,.08-.01,.15-.04,.23,.12,.02,.12,.2,.02,.23,.08,.07,.01,.11,0,.17,.08,.1,.02,.2-.04,.29,.01,.03,.03,.04,.06,.04,0,.03,.02,.04,.04,.06-.02,0-.12,.05-.14,.02-.05-.06-.09,.08-.04,.08,.18,.06,.03,.15-.02,.23,0-.02,.02-.17-.06-.1-.13,0-.26-.01-.35-.1-.04,0-.06-.02-.08-.06,.03-.06,.25-.07,.12-.12-.05,0-.08-.03-.08-.08-.02-.11-.07,.04-.06,.1-.03,0-.07,.03-.1,0,.03-.03,.06-.03,.06-.08-.03-.03-.12,.08-.16,.06,.06,.07,.05,.09,0,.17-.11,.08-.09-.16-.22-.04v-.02c-.05-.05-.15,.15-.2,.13-.19,.06-.42-.03-.59-.02-.11,.12-.17-.14-.25,.02-.09,.12-.17,.07-.14-.17-.07,0-.03,.27-.16,.15-.03,0-.04,.01-.04,.04-.09,.12-.11-.06-.19-.02-.17,.06-.15-.21-.03-.23-.07-.03-.08-.07-.04-.12v-.02c0-2.28,.18-4.66,.16-6.94v-.04c-.06-.14-.03-.29,0-.46-.03-.02,0-.12-.04-.15,.03-.72-.01-1.59,.04-2.21-.06-.25-.03-.74-.04-1-.09,0-.1-.06-.1-.15-.06-.1-.06,.06-.04,.09h-.03c-.04,.12-.17,0-.22,.09-.05-.03-.05-.17-.1-.02-.03-.05-.06,.04-.1,.02-.09-.05-.35,.04-.46-.05-.02-.06-.04,.05-.08,.03-.11-.03-.24,0-.34-.04-.07,.07-.12,.05-.17-.05-.02,.07-.04,.07-.08,.07-.02,.05-.05,0-.05-.03-.04-.06-.03,.02-.08,.02-.07,.02-.12-.06-.2-.03-.03-.01-.04,.06-.06,.03-.05-.05-.07,.02-.12,0-.06-.04-.1,0-.17,.02-.04,0-.1-.09-.14,0-.04-.09-.15-.02-.19-.07-.02,0-.03,.05-.03,.07-.05-.02,0-.13,0-.17-.05,.1-.17,.29-.19,.03-.08,.09-.12,.14-.17,.07-.03,0,.01,.06-.02,.07-.02-.02-.05-.05-.07,0-.05,0-.06-.01-.05-.03,.05-.18-.28,.06-.15-.19-.16,0-.09-.15-.07-.26,0-.01-.03-.07,0-.07,.05-.13,.37-.12,.34-.22-.08-.02-.29,.14-.29-.03-.01-.01,0-.03,.03-.07,.09-.02,.22-.06,.25-.1-.07-.03-.22,.07-.29,.05,.03-.16,.28-.11,.34-.21-.06-.11-.32,.17-.34,.05-.01-.01-.01-.03,0-.07,.01,0,.1-.06,.07-.09,0-.12-.07,0-.14-.06-.12-.08-.32,.05-.37-.09,.09-.03,.1-.22,.17-.24,.58-.02,.67,.11,1.24,.1,.03-.02,.02-.09-.02-.05-.26,.02-.49-.1-.77-.1-.02-.02-.08-.07-.12-.07-.02,0-.07,.06-.07,.02-.02-.01,0-.08,.02-.1-.06-.08,.13-.11,.19-.12,.06,.02,.08,.06,.14-.03-.21-.06-.32-.01-.22-.27-.12-.12,.18-.1,.1-.17-.08,.03-.17,0-.16-.1,.07-.13,.28-.05,.37-.1-.03,0-.05-.01-.05-.05,.21,0,.58,.08,.78,.03,.07,.07,.03-.04,.07-.05,.03,0,.02,.04,0,.05,0,.03,.02,.05,.03,.03,0-.04,0-.08,.05-.08,.03,.02-.01,.05,.02,.07,.1-.03,.19-.11,.25,.05-.04-.14,.08-.06,.1-.12-.19-.05-.6-.12-.82-.12-.13-.05-.92,.13-.8-.14,.07-.13-.09-.1-.02-.19,.03-.28,1.95,.11,2.14-.05,.38,.01,.9,.09,1.24,.1,.04-.14,.16-.17,.23-.24,.04-.1,.07-.1,.1-.02,0,.07,.04,.07,.08,.04,.12-.04,.26,0,.35,.12,.03,0,.04,0,.04-.02,.07-.09,.14,.04,.2,.11,.14-.02,.28-.01,.41-.05,0,0,0,0,.01,0,.15,0,.33-.04,.48-.02,.06-.11,.09-.43,.23-.12,0,.06,.04,.08,.12,.08,.11-.04,.09,.17,.16,.2,.08,.04,.13-.1,.18,.07l.04,1.1c-.05,.27,.06,.98,0,1.48,.16,2.7,.08,5.59,.08,8.21,.87,.01,1.6-.15,2.31-.04,.39-.17,.86,.02,1.29-.04,.02-.03,.04,0,.04,.02,.04,.05,.05,0,.08-.02,.07,.03,.2,0,.27,0l.02,.02c.09,0,.08,.03,.06,.1,.1-.18,.34-.16,.41,.04,.03-.08,.06-.24,.18-.12,.03,.03,.04,.03,.04,0l.04-.02c.02,.06,.13,0,.16,0,0,.03,.01,.03,.04,0,.06,0,.08,.03,.06,.1,.01,0,.02,0,.02-.02l.08-.06s-.05-.07-.04-.13c.09-.55,.03-.9-.06-1.48,.02-.16-.07-2.55-.04-2.86,.05-.03,.27-.08,.27,.02,.04,.35,.27-.3,.45-.06,.02-.03,.02-.1,.04-.12l.06,.04s.06,0,.04-.02c-.04-.06,.11-.11,.1-.17,.09-.1,.33,0,.45-.06,.18-.09,.43,0,.59-.08,.17,.06,.05,.25,.14,.35,.03-.04,.07-.06,.12-.04,.05-.08-.07-.3,.06-.31,.19,.03,0,.31,.16,.4,.1-.11-.1-.48,.12-.5,.23-.06,.16,.07,.27,.21,.07,.66,.19,3.09,.12,3.71,.1,.02,.06,.07,.06,.13,.02,.11,.09,.27,.04,.37-.02,.12-.02,.26,0,.37-.02,.02-.04,.04-.02,.06,.05,.03,.03,.15,.02,.21,0,.13,.03,.21-.02,.35,.03,.03,.04,.04,0,.08h-.02v.02h.02l.02,.02c-.06,.06,.08,.22-.04,.21v.02c.11,.07,.04,.06,0,.12,.03,0,.05-.03,.08,0,0,.03-.04,.05-.12,.06Zm-13.83-9.09c-.05,.01-.11,.07-.02,.07,.01-.01,.02-.02,.02-.03v-.03Zm.12-.1s.03,.08,0,.09c-.06,.05,0-.05-.03-.07-.05-.09-.05,.09-.03,.12-.03,.03,.06,0,.07,0,.16,.03,0-.3,0-.14Zm.17,.09c-.07-.06-.06,.09,0,.03,.02-.02,.02-.03,0-.03Zm.02-.12s-.05,.08-.02,.09c.04,0,.04-.06,.02-.09Zm.05,.15s.08,0,.05-.05l.02-.07c.05-.2-.14,.06-.07,.12Zm.24-.19s-.04,0-.05,.02c-.06-.07-.11,.01-.03,.05,0,.03,.07,.01,.09,.02,.03-.02,.02-.07,0-.09Zm.09,.03h-.02s-.02,.1-.02,.12h.02s0-.04,.02-.06c.01-.02,.01-.04,0-.06Zm.25-.02c-.06-.05-.15,.02-.2,.02,.03,0,.04,.1,.07,.02l.03-.02c.02,.07,.07,.02,.1,.05,.04,0,.06-.13,0-.07Zm.07,.07c.06,0,.1,0,.12-.02,.07-.08-.13-.09-.12,.02Zm.2-.09s-.03,.04-.03,.05l.02,.02s.02-.01,.02-.03v-.03Zm.12,.03s-.08,.03-.03,.05c.02,0,.03-.02,.03-.05Zm.08-.02s-.03,0-.05,.03c.02,0,.04-.01,.05-.03Zm.09-.02s-.05,.07,0,.07c.05,0,.05-.07,0-.07Zm.2,.05l-.02-.02v.05l.02-.03Zm.1,0l-.02-.02h-.02s0,.05,.02,.05l.02-.03Zm.17-.02l-.02-.05s-.03,.05,0,.05h.02Zm.1-.05s-.06,.04-.07,.05c-.01,.08,.07,0,.09-.02,.02-.02,0-.03-.02-.03Zm.29,.05l.03,.02v-.07s-.03,.02-.03,.05Zm.03,.32v.03l.02,.02s.03-.06-.02-.05Zm.15-.34l-.02-.03s-.03,.05,0,.05l.02-.02Zm.74,.95v-.02l-.02,.02h.02Zm.02,10.06h-.02v.02h.02v-.02Zm.02-10.29v-.04s0,.02-.02,.02l.02,.02Zm0,3.67l-.02-.02v.02h.02Zm.02-.42h-.02l.02,.02v-.02Zm.47-.73h-.02v.02h.02v-.02Zm.27-.48l-.08,.02s.05,0,.08-.02Zm.23-1.69v.04l.02-.04h-.02Zm.02,.31v-.04l-.02,.02,.02,.02Zm.04,1.69h-.04s0,.02,.02,.02,.02,0,.02-.02Zm.02-2.5s0-.02-.02-.02v.02h.02Zm.04,.33l-.02-.04v.04h.02Zm.14-.33c-.05-.03-.08-.03-.1-.02v.04s.07,0,.1-.02Zm-.06,.87l.02-.06-.02-.02s-.04,.02-.04,.06l.04,.02Zm-.02-.6v.02s.03-.02,0-.02Zm.04,7.62l-.02-.02v.02l.02,.02v-.02Zm0-7.71c.02,.08,.1-.09,.04-.06-.03,0-.04,.02-.04,.06Zm.02,1.17h-.02v.02l.02-.02Zm.06,6.44s-.05,.02-.06,.06l.03-.03,.03-.03Zm-.04-7.46l.02,.02s.05-.05,.02-.08c-.03,.03-.04,.05-.04,.06Zm.02,.21s.07,.01,.08,0c-.04-.01-.07-.01-.08,0Zm.04,9.71l-.02,.02,.02,.02v-.04Zm0-.6l.06,.02v-.02s-.05-.01-.06,0Zm.08-9.5c-.05,0-.08,.1-.04,.08,.03,0,.04-.03,.04-.08Zm-.06-.12v.04l.02-.02s0-.03-.02-.02Zm.06,7.4s-.03-.03-.06,0h.06Zm0,2.73s-.04,0-.04,.02l.04-.02Zm.02-1.06h-.02v.02l.02-.02Zm0-8.75s.02-.04,.02-.06l-.02,.02v.04Zm.06,5.83s-.05,.01-.06,.04c.01,0,.02,0,.03-.01l.03-.03Zm-.02,1.29l-.02,.02h.02v-.02Zm0,2.56s0,.09,0,.04v-.04Zm.02-9.87l.02-.02h-.02v.02Zm0,6.48v.02l.02-.02h-.02Zm0,.62s.04,.02,.04-.02c-.01,0-.03,0-.04,.02Zm0,1.75s.06-.01,.06-.04c-.04,0-.06,.01-.06,.04Zm.16,1.65c-.05,0-.12,0-.16,.06,.01-.01,.04-.02,.08-.02s.06-.01,.08-.04Zm-.14-10.71s.02,0,.02-.02l-.02-.02v.04Zm0,3.52v.02h.04l-.02-.02h-.02Zm.02,4.44s.02-.03,.02-.04l-.04,.02,.02,.02Zm-.02,.71v.02h.02l-.02-.02Zm0,1.4c.06,.03,.06-.04,.06-.08-.03,0-.05,.03-.06,.08Zm.02,.85s-.02,0-.02,.02h.02v-.02Zm.02-3.27h-.02v.02s.02,0,.02-.02Zm-.02,1.54c.06,.05,.09,.01,.08-.04-.04,0-.07,.01-.08,.04Zm.02,1.08s.02,0,.02-.02h-.02v.02Zm.04-2.04v-.02l-.02,.02h.02Zm.04,1.08s-.03,.02-.06,.06c.04,0,.06-.02,.06-.06Zm-.06,1.23h.02v-.02s-.02,0-.02,.02Zm.04-4.33l.04-.02s-.01-.02-.04-.02l-.02,.02,.02,.02Zm.02-.46l-.02-.02v.04l.02-.02Zm-.02,2.27s.04,0,.08-.04c-.03,0-.05-.03-.08,0v.04Zm0,1.48l.02,.02v-.04s0,.02-.02,.02Zm.02,.23s.07,.03,.1,0h-.1Zm0,.17s-.01,.08,.02,.08c.06,0,.05-.09-.02-.08Zm.04,.27l-.02,.02s0,.03,.02,.02v-.04Zm.02-4.65s-.02,0-.02-.02v.04l.02-.02Zm.02,4.56l-.02,.02v.02h.02v-.04Zm.04-6.62l-.04-.02v.02l.02,.02,.02-.02Zm.02,3.02l-.02-.02h-.04l.04,.02h.02Zm-.04,4.25s0,.05,.02,.02h.05c.15-.08-.11-.14-.07-.02Zm0-.46h.04c.07,.06,.04-.11-.04,0Zm.06,.12s-.05,.13-.02,.1c.03,0,.04-.02,.04-.06,0-.01,0-.03-.02-.04Zm-.04-2.54v.02l.02-.02h-.02Zm.12,.6s.02,0,.02-.02l-.02-.02s-.1-.01-.12,.06c.07-.03,.1-.03,.12-.02Zm-.04,1.35h.02s-.03-.05-.04-.06l-.02,.02,.04,.02v.02Zm.02-1.83v-.04l-.02,.02,.02,.02Zm-.02,2v.06s.02-.01,.02-.04l-.02-.02Zm.04,.52h-.02l.02,.02v-.02Zm.02-.06s.03-.07,0-.06l-.02,.02,.02,.04Zm.02,.33c.15-.04,.01-.19-.02-.04-.01,.03,0,.04,.02,.04Zm-.02-.48l.02-.02s0-.02-.02-.02v.04Zm.14,.52s-.05-.06-.08,0c-.03,0-.03,.01,0,.04,.01,.01,.04,0,.08-.04Zm.06-.52s.06-.01,.06-.04c-.03-.03-.09,.1-.14,.08,.03,.06,.05,.04,.08-.04Zm-.06,.77h-.02l.02,.04v-.04Zm.14,.04s-.08-.03-.06,.04c.03,0,.05-.01,.06-.04Zm0-.6l-.06-.02s.03,.05,.06,.02Zm-.04-3.12h.02l-.02-.02v.02Zm.04,3.52l-.02-.02v.02h.02Zm.14-.83h-.02l.02,.02v-.02Zm.18-9.58h-.02l.02,.02v-.02Zm.02-.63l-.02,.02h.02v-.02Zm-.02,10.52l.02-.02h-.02v.02Zm.33-2.08c-.12-.03-.18-.03-.25-.02v.08h.14c.05,0,.09-.02,.12-.06Zm-.06,.37c-.06-.03-.08-.07-.06-.15h-.14v.17c.08,0,.14,0,.2-.02Zm1.64,1.92c.6,0,1.25,0,1.84,0,.6-.23-2.25-.1-1.84,0Zm.08-2.65h.02s0-.02-.02-.02v.02Zm.04,1.42l.02,.02,.02-.02h-.04Zm.25-.19h.02s.01-.02-.02-.02v.02Zm.53-1.27h.02v-.02l-.02,.02Zm.08-.08h.02v-.02l-.02,.02Zm.1,.92h.02v-.02s-.02,0-.02,.02Zm.22,.35l.02,.02s.03-.02,0-.02v-.02l-.02,.02Zm.18-1.1l.02-.02-.02-.02v.04Zm.02,1.12h.02v-.02l-.02,.02Zm.02-.15s0,.04,.02,.04l-.02-.04Zm.04-.79l.02,.02v-.04l-.02,.02Zm.1,.42s.02,0,.02-.02h-.02v.02Zm0,.29h.02v-.02l-.02,.02Zm.02,.44s.05-.02,.02-.06c-.03,.03-.03,.05-.02,.06Zm.04-.56s.04-.03,.04-.06l-.04,.02v.04Zm.04-.27s.02-.12,0-.06c-.04,0-.04,.02,0,.06Zm0-.54l.02-.02h-.02v.02Zm.04,1.5s0,.02,.02,.02v-.04l-.02,.02Zm.06-1.25l.02,.02v-.04l-.02,.02Zm0,.23l.02,.02,.02-.02s-.02-.01-.02-.04l-.02,.04Zm.02,.1s0,.02,.02,.02v-.02h-.02Zm.08-.65s-.02,0-.02,.02h.02v-.02Zm.06,1.25v-.08s-.01,.07,0,.08Zm.04-1.1s-.03,.06,0,.08c.01-.04,.01-.07,0-.08Zm.04,1.6l-.02-.02v.04l.02-.02Zm.04-.38h-.02v.02l.02-.02Zm.06-1.04s0-.07-.02-.08l.02,.08Zm.1,1.06s-.03,.06,0,.1c.01-.04,.01-.08,0-.1Zm.02-.9l-.02,.04h.02v-.04Zm.02-.35l-.02,.04,.02,.02v-.06Zm.06,.23h.02v-.02l-.02,.02Zm.04,1.08h-.02v.02l.02-.02Zm.04,.08h-.02s-.01,.06,0,.12l.02-.12Zm0-.67s0-.08-.02-.1c0,.06,0,.09,.02,.1Zm0,1.56h-.02v.02h.02v-.02Zm.04-1.06l-.02,.02,.02,.02v-.04Zm.06-.69s0-.13-.02-.15c-.03,.04-.02,.09,.02,.15Zm0,.5l-.02-.02s0,.04,.02,.04v-.02Zm0,.44h-.02l.02,.02v-.02Zm.1-.08s-.03-.06-.06-.06c.01,.03,.03,.05,.06,.06Zm-.02-1.12h.02v-.02s-.02,0-.02,.02Zm.04,.08c0,.08,0,.14-.02,.17,.08-.06,.07-.08,.02-.17Zm0,1.08l-.02,.02,.02,.02v-.04Zm.06-.48l.02,.02v-.02h-.02Zm.04,.27c0-.06,0-.1-.02-.15-.01,.04-.02,.07,0,.09,0,.02,.02,.04,.03,.05Zm0,.27s-.02,0-.02,.02l.02,.02v-.04Zm.04-1.67s-.04,.05-.04,.08c.03-.01,.04-.04,.04-.08Zm0,.29h-.02v.02l.02-.02Zm.04,.42l.02,.02s0-.05-.02-.06v.04Zm.02,.92s0,.07,.02,.08c.01-.03,0-.06-.02-.08Zm.12-1.52c0-.06-.01-.08-.04-.08-.03-.03-.05-.02-.06,.02,.03,.03,.03-.01,.06,.02,0,.03,.01,.04,.04,.04Zm-.08,.75v-.04l-.02,.02,.02,.02Zm.02-.71l-.02,.02c0,.1,.07,0,.02-.02Zm.02,.77s0,.08-.04,.1c.03-.03,.04-.06,.04-.1Zm0,.67l-.02-.04v.02s-.01,.03,0,.04l.02-.02Zm0,.21h-.02v.02l.02-.02Zm0-1.23s.02-.06,.02-.08l-.02,.02v.06Zm.04,1.67h-.02v.02s.02,0,.02-.02Zm.02-1.58s.03-.13,.04-.21h-.02c-.04,.11-.05,.18-.02,.21Zm.02,.19s-.02,0-.02,.02l.02,.02,.02-.02-.02-.02Zm.02,.67l-.02-.02-.02,.02,.02,.02s.02,0,.02-.02Zm0,.48s0-.03-.02-.02v.04l.02-.02Zm.06-.54h-.02s.02,0,.02,.02v-.02Zm0-1.17c.09-.08,.1-.15,.04-.19,.01,.04,0,.08,0,.11-.02,.03-.03,.06-.03,.07Zm.04,.12s-.02,.08-.02,.13c.03,.02,.06-.12,.02-.13Zm0,1.27l-.02-.02v.02h.02Zm.04-.96l-.02,.02,.02,.02v-.04Zm.02,2.08s.02,.02,.04,.02l-.02-.04-.02,.02Zm0-2.48s0-.02,.02-.02l-.02-.02v.04Zm0,.25s0-.03,.02-.04h-.02v.04Zm.04,.46l-.02-.12c-.03,.07-.02,.11,.02,.12Zm0,.65h-.02l.02,.02v-.02Zm.04-.37l-.02-.02v.04l.02-.02Zm.04-.69l-.04-.08s0,.08,0,.09c0,0,.02,0,.03-.01Zm-.02,.98s0-.02-.02-.02v.04l.02-.02Zm.04-1.35c-.03,.06-.03,.12-.02,.19,.01-.04,.02-.1,.02-.19Zm-.02-.15v.04s.03-.04,0-.04Zm.08,1.54l-.02,.02h.02v-.02Zm.04,1.31l.02-.04-.02-.02-.02,.02s-.01,.04,.02,.04Zm0-1.23l-.02-.02v.06s.02-.03,.02-.04Zm.04,.35h-.02v.02l.02-.02Zm.18-2.31c.03-.36-.01-1.03-.1-1.29-.11,.15,.02,.4-.02,.56,.03,.07-.05,1.04,.12,.73Zm-.08,.12l-.02-.02v.02h.02Zm0,.1s.08-.06,.12-.06c-.02-.09-.15-.01-.12,.06Zm.02,1.92l-.02,.02h.02v-.02Zm-.02,.98s.06,0,.06-.04l-.02-.02s-.02,0-.02,.02,0,.03-.02,.04Zm.02-2.79v.04s.02,0,.02-.02l-.02-.02Zm.06,.6l-.06,.06s0,.05,.02,.06v-.02s.02-.03,.02-.05,0-.04,.02-.05Zm0-.1s-.02,0-.02,.02l.02,.02v-.04Zm.02-.33v-.04l-.02,.02,.02,.02Zm.02,1.04l-.02-.02v.04l.02-.02Zm0-.29v.02l.02-.02v-.02l-.02,.02Zm.04,.38h-.04v.13s0-.1,.04-.13Zm0-.54s.01-.08,0-.1c-.03,.03-.03,.06,0,.1Zm.02,.67c-.05,.04-.02,.12-.02,.17,0-.03,0-.1,.02-.12v-.04Zm.23,1.4h.02v-.02l-.02,.02Zm.2-1.08l-.02,.02h.02v-.02Zm.1-.02h-.04l.02,.02,.02-.02Zm.43,.1s0-.02-.02-.02c-.01-.03-.07-.04-.18-.04,.02-.03,.11-.01,.14-.04-.19,.02-.16-.2-.1-.33h-.04c-.04,.07-.05,.17-.04,.31l-.04-.02s-.02,.1-.04,.12h.08c.05,.06,.14,0,.2,0l.04,.02Zm-.22,.04h-.02l.02,.02v-.02Zm0,.92s0,.02,.02,.02v-.02h-.02Zm.06-1.42s0-.02,.02-.02v-.02l-.02,.02v.02Zm.04-1l.02-.02h-.02v.02Zm0,.19h.02l-.02-.02v.02Zm.02-.92l.02,.02,.02-.02h-.04Zm.04-1.12l.02,.02,.02-.02h-.04Zm.08,1.06s.07,.01,.08,0c-.04-.01-.07-.01-.08,0Zm.08,2.23l-.02,.02h.02v-.02Zm.06-.19l-.02-.02-.02,.02h.04Zm-.02-.5l.02,.02v-.02h-.02Zm0,.08l.02,.04v-.02l-.02-.02Zm0,.56s.05,.03,.1,0c-.01,0-.03,0-.04-.01-.01,0-.03,0-.06,.01Zm.04-1.46h.02s0-.03-.02-.02v.02Zm.08,1.5s-.07-.01-.08,0c.03,.03,.05,.03,.08,0Zm-.04-.65s.02-.01,.02-.04h-.02v.04Zm.02-1.83l.02,.02,.02-.02h-.04Zm0,.46l.08-.02s-.07,0-.08,.02Zm.02,.17h.02l-.02-.02h-.02l.02,.02Zm.02,1.58h.04s-.04-.03-.04,0Zm0,.19c.05,.03,.1,.03,.14,0h-.14Zm.02,1.17v-.06s0,.04,0,.06Zm.04-3.42s.05,0,.06-.02c-.04,0-.06,0-.06,.02Zm.22,2.27c-.07,0-.1,.01-.1,.04-.04,0-.07-.03-.12,0,.06,0,.17,.02,.22-.04Zm-.12-.1h.02v-.02s-.02,0-.02,.02Zm.04-2.06l.02-.02h-.02v.02Zm.1,2.25s-.03-.01-.04,0h.04Zm.02-2.67l.02-.02h-.02v.02Zm.06,.44l-.02-.02-.02,.02h.04Zm.12-.04h-.04l.04,.02v-.02Zm.14,.04s-.02-.03-.06,0h.06Zm-.04,.12s0-.02-.02-.02c0,.01,0,.02,.02,.02Zm.06-.04l-.02-.02v.02h.02Zm.16,.1s0,.02,.02,.02v-.02h-.02Zm.02-.29h.02v-.02l-.02,.02Zm0,.19h.02l-.02-.02v.02Zm0,.21s.07,0,.08-.02l-.08,.02Zm.22,1.92s-.08,0-.1,0c-.01,.01-.03,.02-.06,.02,.04,.01,.09,0,.16-.02Zm-.14-2.03s.07,.01,.08,0h-.08Zm.12-.35h.02l-.02-.02v.02Zm.06-.42l.02,.02v-.02h-.02Zm.02,2.87h.06l-.02-.02s-.04,0-.04,.02Zm.04-.92c.05,.01,.09,.01,.12,0h-.12Zm.04-1.87v-.02h-.02l.02,.02Zm-.02,2.17l.02,.02s.06,0,.06-.02h-.08Z"/><path class="cls-8" d="M65.67,128.47c-16.77,0-32.54-6.53-44.41-18.39C9.4,98.21,2.87,82.44,2.87,65.67S9.4,33.12,21.26,21.26C33.12,9.4,48.89,2.87,65.67,2.87s32.54,6.53,44.41,18.39c11.86,11.86,18.39,27.63,18.39,44.41s-6.53,32.54-18.39,44.41c-11.86,11.86-27.63,18.39-44.41,18.39Zm0-121.72c-15.74,0-30.54,6.13-41.66,17.26C12.87,35.13,6.74,49.93,6.74,65.67s6.13,30.54,17.26,41.66c11.13,11.13,25.93,17.26,41.66,17.26s30.54-6.13,41.66-17.26c11.13-11.13,17.26-25.93,17.26-41.66s-6.13-30.54-17.26-41.66c-11.13-11.13-25.93-17.26-41.66-17.26Z"/></svg>