<?xml version="1.0" encoding="UTF-8"?><svg id="Layer_1" xmlns="http://www.w3.org/2000/svg" viewBox="0 0 263 59"><defs><style>.cls-1{fill:#fff;}.cls-2{fill:#ff7900;}.cls-3{fill:#212023;}.cls-4{fill:#444747;}</style></defs><rect class="cls-3" y=".15" width="101.3" height="56.9"/><g><path class="cls-1" d="M20.95,42.74c-2.34,0-3.73,.04-5.02,.11,.2-1.22,.27-2.77,.27-5.11V19.25c0-2.45-.07-3.96-.27-5.64h7.4c-.24,1.82-.27,2.8-.27,5.53v17.37h8.21c2.88,0,4.04-.04,5.63-.24v6.72c-1.25-.18-2.92-.25-5.63-.25h-10.31Z"/><path class="cls-1" d="M44.56,34.03c.34,2.84,1.93,4.34,4.61,4.34,1.36,0,2.54-.45,3.43-1.29,.51-.49,.75-.88,1.02-1.78l5.9,1.71c-.78,1.82-1.29,2.63-2.24,3.61-1.93,1.96-4.65,2.98-8.01,2.98s-5.94-.98-7.87-2.98c-2-2.1-3.09-5.08-3.09-8.54,0-6.93,4.31-11.52,10.79-11.52,5.29,0,8.99,2.98,10.17,8.19,.27,1.12,.41,2.59,.51,4.59,0,.14,0,.35,.04,.7h-15.26Zm8.82-4.83c-.48-2.24-1.93-3.43-4.27-3.43s-3.87,1.12-4.45,3.43h8.72Z"/><path class="cls-1" d="M78.68,41.62c0-.21,0-.45,.03-.77-2.27,1.89-4,2.52-6.85,2.52-6.17,0-9.91-4.27-9.91-11.34,0-3.64,1.02-6.55,2.92-8.54,1.73-1.78,4.1-2.73,6.89-2.73s4.71,.73,6.95,2.59c-.03-.52-.03-.84-.03-1.33v-2.91c0-2.45-.07-3.96-.27-5.5h6.95c-.2,1.47-.27,3.15-.27,5.5v18.13c0,2.35,.07,3.78,.27,5.5h-6.68v-1.12h0Zm-10.14-9.56c0,1.99,.54,3.61,1.56,4.62,.81,.84,2.04,1.33,3.29,1.33,3.02,0,5.22-2.59,5.22-6.06s-2.17-5.85-5.26-5.85c-2.95,0-4.81,2.28-4.81,5.95"/><path class="cls-2" d="M106.42,57.41c.4-3.31,.53-6.21,.53-10.83V10.83c0-5.04-.13-7.52-.53-10.83h13.57c-.33,3.31-.47,5.8-.47,10.83v5.8c0,1.04,0,1.66-.07,2.62,3.94-3.59,8.22-5.18,13.77-5.18,12.17,0,19.25,8.01,19.25,21.67,0,7.39-2.07,13.32-5.95,17.53-3.48,3.59-8.02,5.38-13.91,5.38-5.55,0-8.83-1.17-13.17-4.9,0,.21,.07,1.11,.07,1.45v2.21h-13.09Zm23.66-32.84c-6.08,0-10.43,4.83-10.43,11.52s4.41,12.01,10.16,12.01,9.69-4.9,9.69-12.21c0-7.04-3.54-11.32-9.42-11.32"/><path class="cls-2" d="M156.7,36.3c0-13.8,8.56-22.56,22.06-22.56s22.06,8.76,22.06,22.43-8.82,22.84-22.13,22.84-21.99-8.83-21.99-22.7m12.77-.07c0,7.66,3.48,12.28,9.29,12.28s9.16-4.48,9.16-12.15-3.41-12.28-9.09-12.28c-5.88,0-9.36,4.56-9.36,12.15"/><path class="cls-2" d="M233.84,57.41c-.87-2.07-2.14-4.35-3.34-6.28l-4.14-6.62-4.21,6.83c-1.07,1.66-2.2,3.86-3.21,6.07h-15.64c1.74-2.07,3.68-4.62,4.95-6.49l10.83-15.73-9.56-13.8c-.33-.48-1.87-2.55-4.55-6.07h15.11c1.07,2.69,1.61,3.72,3.01,5.87l3.34,5.17,3.28-5.17c1.47-2.28,2.41-4.07,3.08-5.87h14.97c-1.34,1.66-3.41,4.48-4.55,6.07l-9.49,13.8,10.7,15.59c1.34,1.93,2.74,3.8,4.95,6.63h-15.51Z"/><path class="cls-4" d="M258.81,57.97c-2.31,0-4.19-1.94-4.19-4.32s1.88-4.33,4.19-4.33,4.19,1.94,4.19,4.33c0,2.38-1.88,4.32-4.19,4.32m0-8.03c-1.98,0-3.59,1.66-3.59,3.71s1.61,3.7,3.59,3.7,3.59-1.66,3.59-3.7-1.61-3.71-3.59-3.71"/><path class="cls-4" d="M257.82,52.05h1.04c.18,0,.34,.02,.47,.06s.25,.09,.34,.16,.16,.15,.2,.25,.07,.2,.07,.32c0,.1-.02,.18-.05,.27s-.09,.16-.15,.22-.14,.13-.23,.17c-.09,.05-.19,.08-.3,.11l1.09,1.47h-.58l-1.04-1.43h-.35v1.43h-.5v-3.04h0Zm.5,1.46h.29c.11,0,.22-.01,.31-.04,.1-.03,.18-.07,.25-.13,.07-.06,.13-.12,.16-.2s.06-.17,.06-.27c0-.09-.01-.18-.05-.25-.03-.08-.08-.14-.13-.2-.06-.06-.12-.1-.2-.13-.08-.03-.16-.04-.25-.04h-.44v1.26h0Z"/></g></svg>