<?xml version="1.0" encoding="UTF-8"?><svg id="Layer_1" xmlns="http://www.w3.org/2000/svg" viewBox="0 0 31.5 61"><defs><style>.cls-1{fill:#707070;}</style></defs><g id="Group_5" transform="translate(1.414 1.414)"><g id="Line_9"><path class="cls-1" d="M1,31.5c-.26,0-.51-.1-.71-.29-.39-.39-.39-1.02,0-1.41L29.79,.29c.39-.39,1.02-.39,1.41,0s.39,1.02,0,1.41L1.71,31.21c-.2,.2-.45,.29-.71,.29Z"/></g><g id="Line_10"><path class="cls-1" d="M30.5,61c-.26,0-.51-.1-.71-.29L.29,31.21c-.39-.39-.39-1.02,0-1.41s1.02-.39,1.41,0l29.5,29.5c.39,.39,.39,1.02,0,1.41-.2,.2-.45,.29-.71,.29Z"/></g></g></svg>