<?xml version="1.0" encoding="utf-8"?>
<!-- Generator: Adobe Illustrator 23.1.0, SVG Export Plug-In . SVG Version: 6.00 Build 0)  -->
<svg version="1.1" id="Layer_1" xmlns="http://www.w3.org/2000/svg" xmlns:xlink="http://www.w3.org/1999/xlink" x="0px" y="0px"
	 viewBox="0 0 1920 1080" style="enable-background:new 0 0 1920 1080;" xml:space="preserve">
<style type="text/css">
	.st0{fill:#212023;}
	.st1{fill:#FFFFFF;}
	.st2{fill:#FF7900;}
	.st3{fill:#444747;}
</style>
<g>
	<rect x="608.15" y="426.7" class="st0" width="282.56" height="154.31"/>
	<g>
		<path class="st1" d="M666.6,542.22c-6.53,0-10.41,0.1-14,0.29c0.57-3.32,0.76-7.5,0.76-13.86v-50.13c0-6.65-0.19-10.73-0.76-15.29
			h20.63c-0.66,4.94-0.76,7.6-0.76,15v47.1h22.9c8.04,0,11.26-0.1,15.71-0.66v18.23c-3.5-0.48-8.14-0.67-15.71-0.67H666.6z"/>
		<path class="st1" d="M732.45,518.58c0.94,7.69,5.39,11.77,12.87,11.77c3.78,0,7.09-1.23,9.56-3.51c1.42-1.33,2.08-2.38,2.84-4.84
			l16.46,4.65c-2.18,4.94-3.6,7.12-6.25,9.78c-5.39,5.32-12.96,8.07-22.33,8.07c-9.27,0-16.56-2.66-21.95-8.07
			c-5.58-5.7-8.61-13.77-8.61-23.17c0-18.8,12.02-31.24,30.09-31.24c14.76,0,25.07,8.07,28.38,22.22c0.76,3.04,1.14,7.03,1.42,12.44
			c0,0.38,0,0.95,0.1,1.9H732.45z M757.05,505.47c-1.33-6.08-5.39-9.31-11.92-9.31c-6.72,0-10.79,3.04-12.4,9.31H757.05z"/>
		<path class="st1" d="M827.63,539.18c0-0.57,0-1.23,0.09-2.09c-6.34,5.13-11.17,6.84-19.11,6.84c-17.22,0-27.63-11.58-27.63-30.76
			c0-9.88,2.84-17.76,8.14-23.17c4.83-4.84,11.45-7.41,19.21-7.41c7.66,0,13.15,1.99,19.4,7.03c-0.09-1.42-0.09-2.28-0.09-3.61
			v-7.88c0-6.65-0.19-10.73-0.76-14.91h19.4c-0.57,3.99-0.76,8.55-0.76,14.91v49.18c0,6.36,0.19,10.26,0.76,14.91h-18.64V539.18z
			 M799.34,513.26c0,5.41,1.51,9.78,4.35,12.53c2.27,2.28,5.68,3.61,9.18,3.61c8.42,0,14.57-7.03,14.57-16.43
			c0-9.21-6.06-15.86-14.67-15.86C804.55,497.12,799.34,503.29,799.34,513.26"/>
		<path class="st2" d="M905.01,582c1.12-8.98,1.49-16.84,1.49-29.38v-96.94c0-13.66-0.37-20.4-1.49-29.38h37.85
			c-0.93,8.98-1.31,15.72-1.31,29.38v15.72c0,2.81,0,4.49-0.19,7.11c11-9.73,22.94-14.04,38.41-14.04c33.94,0,53.7,21.71,53.7,58.76
			c0,20.03-5.78,36.12-16.6,47.53c-9.7,9.73-22.38,14.6-38.79,14.6c-15.48,0-24.62-3.18-36.74-13.29c0,0.56,0.19,3,0.19,3.93V582
			H905.01z M971.02,492.93c-16.97,0-29.09,13.1-29.09,31.25c0,18.53,12.31,32.56,28.34,32.56c16.22,0,27.04-13.29,27.04-33.12
			C997.32,504.53,987.43,492.93,971.02,492.93"/>
		<path class="st2" d="M1045.24,524.74c0-37.43,23.87-61.19,61.54-61.19c37.67,0,61.54,23.77,61.54,60.82
			c0,37.24-24.61,61.94-61.73,61.94C1069.11,586.31,1045.24,562.35,1045.24,524.74 M1080.85,524.55c0,20.77,9.7,33.31,25.92,33.31
			c16.22,0,25.55-12.16,25.55-32.94c0-20.96-9.51-33.31-25.36-33.31C1090.55,491.62,1080.85,503.97,1080.85,524.55"/>
		<path class="st2" d="M1260.43,582c-2.42-5.62-5.97-11.79-9.32-17.03l-11.56-17.96l-11.75,18.53c-2.98,4.49-6.15,10.48-8.95,16.47
			h-43.63c4.85-5.62,10.26-12.54,13.8-17.59l30.21-42.67l-26.67-37.43c-0.93-1.31-5.22-6.92-12.68-16.47h42.14
			c2.99,7.3,4.48,10.1,8.39,15.91l9.32,14.03l9.14-14.03c4.1-6.18,6.71-11.04,8.58-15.91h41.77c-3.73,4.49-9.51,12.16-12.68,16.47
			l-26.48,37.43l29.84,42.29c3.73,5.24,7.65,10.3,13.8,17.97H1260.43z"/>
		<path class="st3" d="M1330.08,583.52c-6.44,0-11.69-5.26-11.69-11.72c0-6.47,5.24-11.73,11.69-11.73
			c6.44,0,11.69,5.26,11.69,11.73C1341.76,578.26,1336.52,583.52,1330.08,583.52 M1330.08,561.75c-5.52,0-10.01,4.51-10.01,10.05
			c0,5.54,4.49,10.04,10.01,10.04c5.52,0,10.01-4.51,10.01-10.04C1340.09,566.26,1335.6,561.75,1330.08,561.75"/>
		<path class="st3" d="M1327.33,567.47h2.9c0.5,0,0.94,0.05,1.32,0.16c0.38,0.11,0.69,0.25,0.94,0.44c0.25,0.19,0.44,0.42,0.57,0.68
			c0.13,0.26,0.19,0.55,0.19,0.86c0,0.26-0.05,0.5-0.15,0.72c-0.1,0.22-0.24,0.43-0.42,0.61c-0.18,0.18-0.39,0.34-0.64,0.47
			c-0.25,0.13-0.53,0.23-0.83,0.31l3.04,3.99h-1.63l-2.9-3.87h-0.98v3.87h-1.4V567.47z M1328.73,571.42h0.81
			c0.32,0,0.61-0.04,0.87-0.12c0.27-0.08,0.5-0.2,0.69-0.35c0.2-0.15,0.35-0.33,0.46-0.55c0.11-0.22,0.16-0.46,0.16-0.73
			c0-0.25-0.04-0.48-0.13-0.68c-0.09-0.21-0.21-0.39-0.37-0.53c-0.16-0.15-0.34-0.26-0.56-0.34c-0.22-0.08-0.45-0.12-0.71-0.12
			h-1.23V571.42z"/>
	</g>
</g>
</svg>
